<?xml version="1.0" encoding="utf-8"?>
<!-- Generator: Adobe Illustrator 25.2.3, SVG Export Plug-In . SVG Version: 6.00 Build 0)  -->
<svg version="1.1" id="Ebene_1" xmlns="http://www.w3.org/2000/svg" xmlns:xlink="http://www.w3.org/1999/xlink" x="0px" y="0px"
	 viewBox="0 0 300 200" style="enable-background:new 0 0 300 200;" xml:space="preserve">
<style type="text/css">
	.st0{fill:#FFFFFF;}
	.st1{fill:#009440;}
	.st2{fill:#007631;}
	.st3{fill:#C9D200;}
	.st4{fill:#59AC25;}
	.st5{fill:#FABA00;}
	.st6{fill:#FFED00;}
	.st7{fill:#E1001A;}
	.st8{fill:#EB6A0B;}
</style>
<polygon points="255.6,25.6 300,25.6 300,47.1 255.6,47.1 244.8,36.3 "/>
<g>
	<path class="st0" d="M286.8,39.6h-5.2l-1,2.4h-2.7l5-11.2h2.6l5,11.2h-2.7L286.8,39.6z M285.9,37.6l-1.8-4.3l-1.8,4.3H285.9z"/>
</g>
<polygon class="st1" points="164.8,47.1 0,47.1 0,25.6 164.8,25.6 175.5,36.3 "/>
<polygon class="st2" points="154.7,21.6 0,21.6 0,0.1 154.7,0.1 165.5,10.9 "/>
<polygon class="st3" points="184.8,98 0,98 0,76.5 184.8,76.5 195.6,87.3 "/>
<polygon class="st4" points="174.8,72.6 0,72.6 0,51.1 174.8,51.1 185.5,61.8 "/>
<polygon class="st5" points="204.9,148.9 0,148.9 0,127.4 204.9,127.4 215.6,138.2 "/>
<polygon class="st6" points="194.8,123.5 0,123.5 0,102 194.8,102 205.6,112.7 "/>
<polygon class="st7" points="224.9,199.9 0,199.9 0,178.4 224.9,178.4 235.7,189.1 "/>
<polygon class="st8" points="214.9,174.4 0,174.4 0,152.9 214.9,152.9 225.6,163.7 "/>
<g>
	<path class="st0" d="M18.8,14.1h-5.2l-1,2.4H9.9l5-11.2h2.6l5,11.2h-2.7L18.8,14.1z M17.9,12.1l-1.8-4.3l-1.8,4.3H17.9z"/>
	<path class="st0" d="M30.6,11.9h-2.8v2.7h-2.1v-2.7h-2.8v-2h2.8V7.2h2.1v2.7h2.8V11.9z"/>
</g>
<g>
	<path class="st0" d="M18.8,39.6h-5.2l-1,2.4H9.9l5-11.2h2.6l5,11.2h-2.7L18.8,39.6z M17.9,37.6l-1.8-4.3l-1.8,4.3H17.9z"/>
</g>
<g>
	<path class="st0" d="M21.1,62.6c0.4,0.5,0.5,1.1,0.5,1.8c0,1-0.4,1.7-1.1,2.3c-0.8,0.5-1.9,0.8-3.3,0.8h-5.8V56.2h5.5
		c1.4,0,2.4,0.3,3.2,0.8c0.7,0.5,1.1,1.2,1.1,2.1c0,0.5-0.1,1-0.4,1.5s-0.6,0.8-1.1,1C20.3,61.8,20.8,62.1,21.1,62.6z M13.9,58.1
		v2.6h2.6c0.6,0,1.1-0.1,1.5-0.3c0.3-0.2,0.5-0.6,0.5-1s-0.2-0.8-0.5-1s-0.8-0.3-1.5-0.3H13.9z M18.5,65.1c0.3-0.2,0.5-0.6,0.5-1
		c0-0.9-0.7-1.4-2.1-1.4h-3v2.8h3C17.7,65.5,18.2,65.4,18.5,65.1z"/>
</g>
<g>
	<path class="st0" d="M13.6,92.3c-0.9-0.5-1.7-1.2-2.2-2.1s-0.8-1.9-0.8-3s0.3-2.1,0.8-3s1.3-1.6,2.2-2.1s2-0.7,3.1-0.7
		c1,0,1.9,0.2,2.6,0.5c0.8,0.3,1.4,0.8,2,1.5L19.7,85c-0.8-0.9-1.7-1.3-2.8-1.3c-0.7,0-1.3,0.2-1.9,0.5c-0.5,0.3-1,0.7-1.3,1.3
		c-0.3,0.5-0.5,1.2-0.5,1.9c0,0.7,0.2,1.3,0.5,1.9c0.3,0.5,0.7,1,1.3,1.3c0.5,0.3,1.2,0.5,1.9,0.5c1.1,0,2.1-0.4,2.8-1.3l1.7,1.5
		c-0.5,0.7-1.2,1.1-2,1.5c-0.8,0.3-1.7,0.5-2.6,0.5C15.6,93.1,14.6,92.8,13.6,92.3z"/>
</g>
<g>
	<path class="st0" d="M11.4,107.1h5.1c1.2,0,2.3,0.2,3.2,0.7c0.9,0.5,1.7,1.1,2.2,2c0.5,0.8,0.8,1.8,0.8,3s-0.3,2.1-0.8,3
		c-0.5,0.8-1.2,1.5-2.2,2c-0.9,0.5-2,0.7-3.2,0.7h-5.1V107.1z M16.3,116.2c1.1,0,2-0.3,2.7-0.9s1-1.5,1-2.5c0-1.1-0.3-1.9-1-2.5
		s-1.6-0.9-2.7-0.9H14v7h2.3V116.2z"/>
</g>
<g>
	<path class="st0" d="M20.1,141.7v2.1h-8.7v-11.2h8.5v2.1H14v2.4h5.2v2H14v2.6L20.1,141.7L20.1,141.7z"/>
</g>
<g>
	<path class="st0" d="M14,160.1v3h5.2v2.1H14v4.1h-2.6V158h8.5v2.1H14z"/>
</g>
<g>
	<path class="st0" d="M18.9,188.9h2.4v4.6c-0.6,0.5-1.3,0.8-2.1,1.1c-0.8,0.2-1.6,0.4-2.4,0.4c-1.2,0-2.2-0.2-3.1-0.7
		s-1.7-1.2-2.2-2.1c-0.5-0.9-0.8-1.9-0.8-3s0.3-2.1,0.8-3s1.3-1.6,2.2-2.1s2-0.7,3.2-0.7c1,0,1.9,0.2,2.7,0.5c0.8,0.3,1.5,0.8,2,1.4
		l-1.7,1.5c-0.8-0.8-1.8-1.3-2.9-1.3c-0.7,0-1.4,0.1-1.9,0.4c-0.6,0.3-1,0.7-1.3,1.3c-0.3,0.5-0.5,1.2-0.5,1.9s0.2,1.3,0.5,1.9
		c0.3,0.5,0.7,1,1.3,1.3s1.2,0.5,1.9,0.5c0.7,0,1.4-0.2,2-0.5v-3.4H18.9z"/>
</g>
</svg>
