<svg xmlns="http://www.w3.org/2000/svg" width="24" height="24" viewBox="0 0 24 24">
  <path fill="#121317" fill-rule="evenodd" d="M11.3871006,2.20970461 C11.7467008,1.93009846 12.2532992,1.93009846 12.6128994,2.20970461 L12.7071068,2.29289322 L18.7071068,8.29289322 L18.7902954,8.38710056 C19.0699015,8.74670083 19.0699015,9.25329917 18.7902954,9.61289944 L18.7071068,9.70710678 L18.6128994,9.79029539 C18.2532992,10.0699015 17.7467008,10.0699015 17.3871006,9.79029539 L17.2928932,9.70710678 L13,5.415 L13,21 C13,21.5128358 12.6139598,21.9355072 12.1166211,21.9932723 L12,22 C11.4871642,22 11.0644928,21.6139598 11.0067277,21.1166211 L11,21 L11,5.415 L6.70710678,9.70710678 L6.61289944,9.79029539 C6.22060824,10.0953203 5.65337718,10.0675907 5.29289322,9.70710678 C4.93240926,9.34662282 4.90467972,8.77939176 5.20970461,8.38710056 L5.29289322,8.29289322 L11.2928932,2.29289322 L11.3871006,2.20970461 Z"/>
</svg>
