<svg xmlns="http://www.w3.org/2000/svg" width="24" height="24" viewBox="0 0 24 24">
  <path fill="#121317" fill-rule="evenodd" d="M2.20970461,12.6128994 C1.93009846,12.2532992 1.93009846,11.7467008 2.20970461,11.3871006 L2.29289322,11.2928932 L8.29289322,5.29289322 L8.38710056,5.20970461 C8.74670083,4.93009846 9.25329917,4.93009846 9.61289944,5.20970461 L9.70710678,5.29289322 L9.79029539,5.38710056 C10.0699015,5.74670083 10.0699015,6.25329917 9.79029539,6.61289944 L9.70710678,6.70710678 L5.415,11 L21,11 C21.5128358,11 21.9355072,11.3860402 21.9932723,11.8833789 L22,12 C22,12.5128358 21.6139598,12.9355072 21.1166211,12.9932723 L21,13 L5.415,13 L9.70710678,17.2928932 L9.79029539,17.3871006 C10.0953203,17.7793918 10.0675907,18.3466228 9.70710678,18.7071068 C9.34662282,19.0675907 8.77939176,19.0953203 8.38710056,18.7902954 L8.29289322,18.7071068 L2.29289322,12.7071068 L2.20970461,12.6128994 Z"/>
</svg>
