<svg xmlns="http://www.w3.org/2000/svg" width="24" height="24" viewBox="0 0 24 24">
  <path fill="#121317" fill-rule="evenodd" d="M11.3871006,21.7902954 C11.7467008,22.0699015 12.2532992,22.0699015 12.6128994,21.7902954 L12.7071068,21.7071068 L18.7071068,15.7071068 L18.7902954,15.6128994 C19.0699015,15.2532992 19.0699015,14.7467008 18.7902954,14.3871006 L18.7071068,14.2928932 L18.6128994,14.2097046 C18.2532992,13.9300985 17.7467008,13.9300985 17.3871006,14.2097046 L17.2928932,14.2928932 L13,18.585 L13,3 C13,2.48716416 12.6139598,2.06449284 12.1166211,2.00672773 L12,2 C11.4871642,2 11.0644928,2.38604019 11.0067277,2.88337887 L11,3 L11,18.585 L6.70710678,14.2928932 L6.61289944,14.2097046 C6.22060824,13.9046797 5.65337718,13.9324093 5.29289322,14.2928932 C4.93240926,14.6533772 4.90467972,15.2206082 5.20970461,15.6128994 L5.29289322,15.7071068 L11.2928932,21.7071068 L11.3871006,21.7902954 Z"/>
</svg>
