<svg xmlns="http://www.w3.org/2000/svg" width="24" height="24" viewBox="0 0 24 24">
  <path fill="#121317" fill-rule="evenodd" d="M21.7902954,12.6128994 C22.0699015,12.2532992 22.0699015,11.7467008 21.7902954,11.3871006 L21.7071068,11.2928932 L15.7071068,5.29289322 L15.6128994,5.20970461 C15.2532992,4.93009846 14.7467008,4.93009846 14.3871006,5.20970461 L14.2928932,5.29289322 L14.2097046,5.38710056 C13.9300985,5.74670083 13.9300985,6.25329917 14.2097046,6.61289944 L14.2928932,6.70710678 L18.585,11 L3,11 C2.48716416,11 2.06449284,11.3860402 2.00672773,11.8833789 L2,12 C2,12.5128358 2.38604019,12.9355072 2.88337887,12.9932723 L3,13 L18.585,13 L14.2928932,17.2928932 L14.2097046,17.3871006 C13.9046797,17.7793918 13.9324093,18.3466228 14.2928932,18.7071068 C14.6533772,19.0675907 15.2206082,19.0953203 15.6128994,18.7902954 L15.7071068,18.7071068 L21.7071068,12.7071068 L21.7902954,12.6128994 Z"/>
</svg>
