<?xml version="1.0" encoding="UTF-8"?>
<svg width="100px" height="24px" viewBox="0 0 100 24" version="1.1" xmlns="http://www.w3.org/2000/svg" xmlns:xlink="http://www.w3.org/1999/xlink">
    <!-- Generator: Sketch 63.1 (92452) - https://sketch.com -->
    <title>autoscout-logo</title>
    <desc>Created with Sketch.</desc>
    <g id="Views" stroke="none" stroke-width="1" fill="none" fill-rule="evenodd">
        <g id="00.00-Homepage" transform="translate(-416.000000, -5049.000000)" fill-rule="nonzero">
            <g id="bottom" transform="translate(0.000000, 4498.000000)">
                <g id="rates" transform="translate(108.000000, 551.000000)">
                    <g id="AutoScout" transform="translate(308.000000, 0.000000)">
                        <g id="autoscout-logo">
                            <path d="M0.1,22.7 C0.0833333333,22.5833333 0.116666667,22.4666667 0.166666667,22.3666667 C0.166666667,22.35 0.183333333,22.3666667 0.2,22.35 C0.216666667,22.3166667 0.216666667,22.2833333 0.216666667,22.2333333 C0.216666667,22.1666667 0.2,22.1 0.183333333,22.0333333 C0.15,21.9 0.133333333,21.75 0.166666667,21.6 C0.183333333,21.5166667 0.183333333,21.4166667 0.166666667,21.3333333 C0.15,21.2333333 0.116666667,21.1333333 0.0666666667,21.05 C0.0333333333,21 0.0166666667,20.95 0,20.9 C0,20.8666667 0,20.8333333 0,20.8 C0.0333333333,20.75 0.0666666667,20.7166667 0.1,20.6666667 C0.116666667,20.65 0.15,20.6833333 0.166666667,20.65 C0.2,20.5833333 0.15,20.5166667 0.15,20.45 L0.15,20.4166667 C0.15,20.3 0.133333333,20.2 0.116666667,20.1 C0.1,20.05 0.1,19.9666667 0.133333333,19.95 C0.166666667,19.9333333 0.166666667,19.8666667 0.15,19.7833333 C0.133333333,19.7333333 0.116666667,19.6666667 0.116666667,19.6 C0.1,19.5333333 0.0833333333,19.4666667 0.0833333333,19.3833333 C0.0833333333,19.3666667 0.1,19.3833333 0.116666667,19.3833333 C0.133333333,19.3833333 0.133333333,19.3666667 0.133333333,19.3333333 C0.133333333,19.3 0.15,19.2 0.183333333,19.2 C0.216666667,19.2 0.216666667,18.9666667 0.25,18.9 C0.3,18.7666667 0.316666667,18.6333333 0.283333333,18.5 C0.266666667,18.2833333 0.266666667,18.2833333 0.316666667,18.15 C0.316666667,18.1333333 0.333333333,18.1166667 0.333333333,18.0833333 C0.35,18 0.366666667,17.9833333 0.4,18 C0.416666667,18 0.433333333,18 0.433333333,18 C0.466666667,17.9833333 0.483333333,17.95 0.45,17.8666667 C0.416666667,17.7833333 0.383333333,17.7166667 0.333333333,17.65 C0.3,17.6 0.283333333,17.55 0.266666667,17.5 C0.25,17.4333333 0.25,17.3666667 0.25,17.2833333 C0.25,17.2666667 0.266666667,17.25 0.283333333,17.2666667 C0.3,17.2833333 0.316666667,17.35 0.333333333,17.25 C0.35,17.2 0.333333333,17.15 0.3,17.1 C0.3,17.1 0.3,17.0833333 0.283333333,17.0666667 C0.25,16.95 0.25,16.8833333 0.3,16.8333333 C0.35,16.75 0.366666667,16.6666667 0.35,16.5833333 C0.35,16.5 0.35,16.4166667 0.333333333,16.3333333 C0.316666667,16.2333333 0.333333333,16.2333333 0.35,16.2333333 C0.366666667,16.2333333 0.383333333,16.2166667 0.383333333,16.2 C0.383333333,16.15 0.366666667,16.1 0.366666667,16.0666667 C0.35,16.0166667 0.333333333,15.9833333 0.333333333,15.9333333 C0.333333333,15.9 0.333333333,15.8833333 0.333333333,15.85 C0.333333333,15.8666667 0.35,15.8666667 0.35,15.8833333 C0.366666667,15.9 0.4,15.95 0.416666667,15.95 C0.433333333,15.95 0.45,15.9166667 0.45,15.8833333 C0.45,15.8333333 0.433333333,15.7666667 0.416666667,15.7166667 C0.35,15.65 0.35,15.4833333 0.333333333,15.35 C0.316666667,15.1833333 0.3,15.1 0.25,15.0666667 C0.2,15.0333333 0.233333333,14.9833333 0.25,14.95 C0.283333333,14.85 0.3,14.75 0.283333333,14.65 C0.283333333,14.5833333 0.266666667,14.4833333 0.3,14.4833333 C0.333333333,14.4666667 0.35,14.3666667 0.333333333,14.2666667 C0.3,14.1333333 0.333333333,14.1666667 0.366666667,14.15 C0.4,14.15 0.4,14.15 0.416666667,14.1166667 C0.416666667,14.0166667 0.416666667,13.9166667 0.366666667,13.8166667 C0.333333333,13.7833333 0.316666667,13.75 0.283333333,13.7 C0.266666667,13.6666667 0.266666667,13.6166667 0.266666667,13.5833333 C0.283333333,13.5833333 0.283333333,13.5666667 0.3,13.5833333 C0.35,13.6666667 0.383333333,13.5333333 0.433333333,13.5166667 C0.433333333,13.4833333 0.45,13.45 0.433333333,13.4333333 C0.433333333,13.3833333 0.416666667,13.3333333 0.4,13.3 C0.383333333,13.2166667 0.35,13.15 0.4,13.1 C0.433333333,13.0333333 0.416666667,12.9666667 0.383333333,12.9 C0.366666667,12.8666667 0.35,12.8166667 0.333333333,12.7833333 C0.316666667,12.75 0.316666667,12.7 0.316666667,12.6666667 C0.333333333,12.65 0.35,12.6333333 0.35,12.6333333 C0.366666667,12.6333333 0.383333333,12.65 0.4,12.6333333 C0.416666667,12.6166667 0.433333333,12.6 0.433333333,12.5666667 C0.433333333,12.5166667 0.433333333,12.4666667 0.416666667,12.4166667 C0.35,12.3166667 0.366666667,12.15 0.383333333,12.0166667 C0.4,11.95 0.383333333,11.8666667 0.366666667,11.8 C0.366666667,11.7666667 0.35,11.7333333 0.35,11.7 C0.366666667,11.7 0.366666667,11.7 0.383333333,11.7166667 C0.383333333,11.7166667 0.4,11.75 0.4,11.75 C0.4,11.75 0.416666667,11.7166667 0.416666667,11.7166667 C0.4,11.6166667 0.4,11.4666667 0.35,11.4333333 C0.3,11.3833333 0.283333333,11.25 0.283333333,11.1333333 C0.283333333,11.0166667 0.316666667,10.9666667 0.35,10.9666667 C0.4,10.95 0.416666667,10.8666667 0.416666667,10.7166667 C0.416666667,10.5666667 0.433333333,10.5333333 0.483333333,10.5333333 C0.533333333,10.5333333 0.55,10.4833333 0.516666667,10.3333333 C0.5,10.3 0.5,10.2666667 0.483333333,10.2333333 C0.466666667,10.1833333 0.45,10.1333333 0.466666667,10.0833333 C0.483333333,9.98333333 0.483333333,9.9 0.45,9.8 C0.433333333,9.76666667 0.416666667,9.73333333 0.416666667,9.68333333 C0.4,9.65 0.4,9.61666667 0.4,9.58333333 C0.4,9.53333333 0.4,9.5 0.416666667,9.45 C0.433333333,9.41666667 0.45,9.4 0.466666667,9.36666667 C0.483333333,9.33333333 0.483333333,9.3 0.483333333,9.26666667 L0.483333333,9.2 C0.466666667,9.11666667 0.466666667,9.05 0.483333333,8.96666667 C0.483333333,8.9 0.5,8.83333333 0.5,8.76666667 C0.5,8.73333333 0.5,8.71666667 0.483333333,8.68333333 L0.466666667,8.65 C0.483333333,8.6 0.483333333,8.51666667 0.5,8.5 C0.5,8.5 0.516666667,8.48333333 0.516666667,8.48333333 C0.533333333,8.45 0.533333333,8.4 0.533333333,8.36666667 C0.533333333,8.3 0.516666667,8.23333333 0.516666667,8.18333333 C0.516666667,8.13333333 0.533333333,8.1 0.533333333,8.05 C0.533333333,8.01666667 0.533333333,8 0.533333333,7.96666667 L0.533333333,7.93333333 C0.533333333,7.88333333 0.533333333,7.81666667 0.516666667,7.78333333 C0.516666667,7.71666667 0.5,7.66666667 0.5,7.6 C0.5,7.46666667 0.633333333,7.3 0.616666667,7.21666667 C0.6,7.16666667 0.583333333,7.13333333 0.583333333,7.1 C0.55,6.98333333 0.55,6.98333333 0.6,6.91666667 C0.616666667,6.88333333 0.616666667,6.85 0.616666667,6.83333333 C0.616666667,6.78333333 0.6,6.75 0.583333333,6.7 C0.55,6.6 0.5,6.53333333 0.466666667,6.43333333 C0.45,6.38333333 0.566666667,6.21666667 0.566666667,6.13333333 C0.583333333,6 0.566666667,5.88333333 0.55,5.75 C0.5,5.65 0.533333333,5.66666667 0.483333333,5.56666667 C0.483333333,5.56666667 0.616666667,5.3 0.6,5.2 C0.616666667,5.18333333 0.616666667,5.15 0.633333333,5.13333333 C0.65,5.11666667 0.65,5.1 0.65,5.08333333 C0.666666667,5.01666667 0.65,4.95 0.6,4.9 C0.6,4.9 0.416666667,4.55 0.616666667,4.48333333 L0.666666667,4.4 L0.7,4.28333333 C0.716666667,4.2 0.75,4.1 0.8,4.01666667 L0.816666667,4 C0.833333333,3.98333333 0.866666667,3.98333333 0.883333333,3.98333333 C0.9,3.98333333 0.916666667,3.96666667 0.933333333,3.96666667 C0.966666667,3.95 0.983333333,3.93333333 1.01666667,3.93333333 C1.06666667,3.91666667 1.11666667,3.91666667 1.15,3.93333333 C1.16666667,3.93333333 1.16666667,3.93333333 1.18333333,3.95 C1.18333333,3.95 1.3,3.96666667 1.45,4.01666667 C6.9,5.46666667 25.8833333,3.86666667 38.6166667,0.316666667 C38.95,0.233333333 39.4833333,0.1 39.5833333,0.0666666667 C39.7,0.0333333333 39.6166667,0.166666667 39.5,0.266666667 C39.4166667,0.333333333 39.0333333,0.4 39,0.416666667 C38.9833333,0.433333333 38.9666667,0.45 38.9666667,0.466666667 C39.05,0.65 39.55,0.466666667 39.75,0.433333333 C39.95,0.416666667 39.9333333,0.5 39.8166667,0.566666667 C39.6333333,0.683333333 39.6,0.833333333 39.6833333,0.9 C39.7,0.916666667 39.7333333,0.916666667 39.75,0.933333333 C39.7666667,0.95 39.8,1 39.8,1.01666667 C39.7833333,1.06666667 39.75,1.11666667 39.7166667,1.15 C39.6166667,1.23333333 39.6,1.36666667 39.6666667,1.46666667 C39.7166667,1.53333333 39.7166667,1.6 39.6666667,1.66666667 C39.6166667,1.75 39.05,1.96666667 38.95,2.01666667 C38.8833333,2.03333333 38.8166667,2.06666667 38.75,2.11666667 C38.7333333,2.13333333 38.7166667,2.18333333 38.7333333,2.2 C38.8166667,2.25 39.4,1.98333333 39.4833333,2.01666667 C39.5333333,2.03333333 40.2333333,1.8 39.9166667,2.03333333 C39.85,2.08333333 39.6333333,2.28333333 39.6333333,2.33333333 C39.6333333,2.35 39.6333333,2.35 39.6333333,2.36666667 C39.6166667,2.45 39.6166667,2.53333333 39.55,2.6 C39.5,2.63333333 39.5333333,2.71666667 39.5833333,2.71666667 C39.6833333,2.75 39.65,2.78333333 39.6,2.85 C39.5,2.96666667 39.1666667,3.1 39.0666667,3.21666667 C39.05,3.23333333 39.0666667,3.25 39.05,3.26666667 C39.0666667,3.26666667 39.1,3.28333333 39.1,3.26666667 C39.15,3.2 39.2166667,3.23333333 39.2833333,3.21666667 C39.4333333,3.15 39.8333333,3 39.8833333,2.95 C39.9833333,2.85 40.1333333,2.91666667 40.0333333,3.06666667 C40,3.11666667 39.9666667,3.08333333 39.9333333,3.18333333 C39.9,3.23333333 39.8666667,3.26666667 39.8333333,3.31666667 C39.7666667,3.38333333 39.7166667,3.46666667 39.7833333,3.53333333 C39.9,3.61666667 39.8833333,3.73333333 39.8666667,3.85 C39.8333333,4.01666667 39.8333333,4.01666667 39.9333333,4.13333333 C39.95,4.15 39.9666667,4.16666667 39.9666667,4.18333333 C39.9833333,4.25 40.05,4.28333333 40.1166667,4.26666667 C40.15,4.26666667 40.1833333,4.26666667 40.2,4.28333333 C40.2833333,4.3 40.3,4.33333333 40.2333333,4.38333333 C40.15,4.43333333 40.0666667,4.46666667 39.9833333,4.51666667 C39.9333333,4.53333333 39.8833333,4.56666667 39.8333333,4.61666667 C39.8,4.65 39.7666667,4.73333333 39.8,4.76666667 C39.8666667,4.81666667 40.1,4.7 40.1333333,4.7 C40.1666667,4.7 40.2166667,4.65 40.25,4.73333333 C40.2666667,4.8 39.7333333,4.96666667 39.6833333,4.98333333 C39.6833333,4.98333333 39.6666667,5 39.6666667,5 C39.5833333,5.08333333 39.75,5.1 39.85,5.13333333 C39.95,5.15 40.25,5.03333333 40.2,5.1 C40.1833333,5.11666667 40,5.21666667 39.9833333,5.26666667 C39.95,5.35 39.8833333,5.31666667 39.8833333,5.35 C39.8833333,5.41666667 39.8666667,5.46666667 39.85,5.53333333 C39.8166667,5.6 39.85,5.6 39.9,5.61666667 C39.9333333,5.61666667 39.9,5.68333333 39.9,5.7 C39.9,5.73333333 39.8833333,5.76666667 39.85,5.8 C39.8166667,5.83333333 39.7833333,5.85 39.75,5.88333333 C39.7333333,5.9 39.75,5.91666667 39.75,5.93333333 C39.7666667,5.93333333 40.15,5.81666667 40.1666667,5.81666667 C40.2166667,5.8 40.2833333,5.78333333 40.35,5.78333333 C40.3833333,5.78333333 40.5,5.76666667 40.4333333,5.85 C40.4,5.88333333 40.4166667,5.86666667 40.3,5.93333333 C40.1666667,5.98333333 40.1833333,5.98333333 39.8166667,6.23333333 C39.7333333,6.28333333 39.65,6.35 39.5833333,6.4 C39.5333333,6.43333333 39.6,6.5 39.6833333,6.46666667 C39.9333333,6.35 40.4833333,6.2 40.45,6.3 C40.4,6.41666667 40.3,6.48333333 40.2666667,6.58333333 C40.2166667,6.71666667 40.1333333,6.66666667 40.1,6.7 C40.05,6.75 40.0833333,6.83333333 40.15,6.85 C40.25,6.88333333 40.1833333,6.96666667 40.15,7.03333333 C40.0833333,7.13333333 40.15,7.11666667 40.2166667,7.11666667 C40.25,7.11666667 40.55,7.06666667 40.5666667,7.1 C40.6,7.15 40.35,7.26666667 40.2666667,7.3 C40.1666667,7.33333333 40.0833333,7.38333333 40.0166667,7.45 C40,7.48333333 39.95,7.56666667 39.9666667,7.56666667 C40.05,7.56666667 40.1166667,7.55 40.2,7.53333333 C40.4166667,7.51666667 40.45,7.41666667 40.5666667,7.43333333 C40.65,7.45 40.4,7.5 40.3333333,7.63333333 C40.2833333,7.73333333 40.25,7.71666667 40.2166667,7.73333333 C40.1666667,7.78333333 40.1,7.81666667 40.2166667,7.88333333 C40.2833333,7.91666667 40.3833333,7.96666667 40.3166667,8 C40.2833333,8.03333333 40.25,8.06666667 40.2666667,8.11666667 C40.2666667,8.15 40.3333333,8.11666667 40.4166667,8.15 C40.4666667,8.16666667 40.5166667,8.16666667 40.5666667,8.16666667 C40.6,8.16666667 40.6333333,8.18333333 40.65,8.18333333 C40.6833333,8.2 40.7833333,8.2 40.7833333,8.21666667 C40.7833333,8.23333333 40.65,8.31666667 40.6166667,8.33333333 C40.5,8.36666667 40.3333333,8.5 40.3333333,8.6 C40.3333333,8.63333333 40.6833333,8.45 40.75,8.48333333 C40.8333333,8.53333333 40.6333333,8.51666667 40.5833333,8.63333333 C40.5333333,8.76666667 40.3333333,8.75 40.3166667,8.76666667 C40.3,8.8 40.2833333,8.81666667 40.2666667,8.83333333 C40.25,8.85 40.25,8.88333333 40.2333333,8.9 C40.25,8.9 40.2833333,8.9 40.3,8.9 C40.3166667,8.9 40.3333333,8.88333333 40.35,8.88333333 C40.3666667,8.88333333 40.3666667,8.9 40.3666667,8.91666667 C40.3166667,8.98333333 40.1666667,9.05 40.2,9.11666667 C40.2166667,9.13333333 40.3333333,9.06666667 40.4333333,9.05 C40.5833333,9.01666667 40.5666667,8.96666667 40.6333333,8.96666667 C40.7,8.96666667 40.7666667,8.9 40.75,8.96666667 C40.7333333,9 40.7,9.01666667 40.65,9.03333333 C40.5833333,9.05 40.5666667,9.1 40.5833333,9.1 C40.65,9.1 40.7333333,9.11666667 40.7333333,9.15 C40.7333333,9.2 40.8,9.16666667 40.8166667,9.2 C40.8333333,9.21666667 41.0166667,9.1 41,9.21666667 C40.95,9.33333333 40.8666667,9.41666667 40.75,9.46666667 C40.6833333,9.5 40.5166667,9.56666667 40.5166667,9.65 C40.5166667,9.76666667 41.0166667,9.65 41.1333333,9.66666667 C41.25,9.68333333 41.2833333,9.71666667 41.2,9.81666667 C41.1833333,9.85 41.15,9.86666667 41.1166667,9.88333333 C41.0666667,9.91666667 41.05,9.93333333 41.0833333,9.98333333 C41.1333333,10.0666667 41.1,10.1166667 41.0166667,10.1666667 C40.9666667,10.2 40.9166667,10.25 40.8666667,10.2833333 C40.85,10.3 40.85,10.3333333 40.8333333,10.3666667 C40.8666667,10.3833333 40.8833333,10.3833333 40.9166667,10.3833333 C40.9666667,10.3666667 41.0333333,10.35 41.0833333,10.35 C41.1833333,10.35 41.1833333,10.3666667 41.15,10.4666667 C41.1333333,10.5166667 41.1333333,10.55 41.1333333,10.6 C41.1333333,10.6833333 41.0833333,10.7666667 41.0166667,10.8166667 C40.9833333,10.85 40.95,10.8666667 40.9333333,10.9 C40.8666667,10.9833333 40.8666667,10.9833333 40.95,11.0333333 C40.9666667,11.05 41,11.0833333 41,11.1166667 C41,11.15 40.9833333,11.2 40.95,11.2166667 C40.8666667,11.2666667 41.25,11.1666667 41.35,11.4666667 C41.3666667,11.5666667 41.6833333,11.6166667 41.6166667,11.6666667 C41.5166667,11.7333333 41.4,11.7666667 41.3166667,11.8333333 C41.2666667,11.8833333 41.2333333,11.9333333 41.2,12 C41.2333333,12.0166667 41.25,12.05 41.2833333,12.0666667 C41.3,12.0833333 41.3166667,12.0833333 41.3333333,12.1 C41.3666667,12.1833333 41.45,12.2333333 41.55,12.2333333 C41.6,12.25 41.65,12.2666667 41.7,12.3 C41.6666667,12.35 41.6166667,12.3833333 41.5666667,12.4166667 C41.5166667,12.45 41.4333333,12.45 41.3833333,12.4833333 C41.3333333,12.5166667 41.45,12.5333333 41.4166667,12.5666667 C41.4,12.6166667 41.4,12.6666667 41.4166667,12.7166667 C41.4166667,12.7333333 41.4833333,12.7166667 41.5166667,12.7333333 C41.55,12.7333333 41.5666667,12.75 41.5833333,12.7666667 C41.6,12.8 41.5833333,12.8166667 41.5833333,12.85 C41.5666667,12.8833333 41.35,12.9166667 41.3166667,12.9333333 C41.25,13 41.2666667,13.05 41.35,13.0833333 C41.55,13.15 41.7833333,13.2833333 41.6833333,13.4333333 C41.6333333,13.5 41.6833333,13.5 41.7166667,13.5 C41.75,13.5166667 41.7666667,13.5 41.7833333,13.5166667 C41.85,13.5333333 41.85,13.5666667 41.8,13.6166667 C41.7666667,13.65 41.55,13.7333333 41.5166667,13.7666667 C41.5166667,13.7833333 40.8,14.1 41.5333333,13.8833333 C41.55,13.8833333 41.6166667,13.85 41.6833333,13.8166667 C41.7333333,13.8 41.8166667,13.7833333 41.8833333,13.7666667 C41.9166667,13.75 41.9666667,13.8 41.9666667,13.8333333 C41.9833333,13.8666667 41.95,13.9166667 41.9,13.9333333 C41.8666667,13.9333333 41.8333333,13.95 41.8166667,13.9833333 C41.7833333,14.0666667 41.6833333,14.1333333 41.6833333,14.25 C41.6833333,14.2833333 41.6166667,14.3333333 41.5666667,14.35 C41.55,14.3666667 41.5333333,14.3666667 41.5166667,14.3833333 C41.5166667,14.4 41.5,14.4166667 41.5,14.4333333 C41.5,14.45 41.5166667,14.45 41.5333333,14.45 C41.6333333,14.5 41.6,14.5666667 41.6,14.65 C41.5833333,14.7166667 41.85,14.5833333 41.9333333,14.6166667 C42,14.6333333 42.0333333,14.7166667 41.9833333,14.7666667 C41.9166667,14.8333333 41.95,14.8333333 42.0166667,14.85 C42.05,14.85 42.1166667,14.8833333 42.1166667,14.9 C42.1166667,14.9666667 42.1,15.0166667 42.0833333,15.0666667 C42.0666667,15.0833333 42.0333333,15.1 42,15.1166667 C41.9333333,15.1333333 41.8833333,15.15 41.8166667,15.1833333 C41.8,15.2 41.8,15.2166667 41.8,15.2333333 C41.8,15.25 41.8333333,15.2666667 41.8333333,15.2666667 C41.9333333,15.2166667 42,15.2833333 42.0833333,15.3333333 C42.1333333,15.35 41.8333333,15.45 41.95,15.5 C42.0333333,15.5333333 42.0333333,15.4666667 42.1,15.4833333 C42.2166667,15.4833333 42.0666667,15.5833333 41.8833333,15.5833333 C41.7833333,15.5833333 41.7333333,15.7 41.7166667,15.7166667 C41.6666667,15.75 41.6833333,15.8333333 41.9,15.75 C42,15.7166667 42.3166667,15.8666667 42.2166667,15.9166667 C42.2,15.9166667 42.05,16.0166667 42.05,16.0333333 C42.0166667,16.0833333 41.95,16.0833333 42.0166667,16.15 C42.05,16.1666667 42.0333333,16.2166667 42.0666667,16.2333333 C42.0833333,16.2333333 42.1833333,16.2333333 42.2,16.25 C42.2333333,16.2666667 42.3666667,16.1 42.4166667,16.1833333 C42.4333333,16.2166667 42.2,16.3833333 42.1666667,16.4166667 C42.1,16.4666667 41.9333333,16.5333333 41.8666667,16.6166667 C41.85,16.6333333 42.0166667,16.5833333 42.05,16.5666667 C42.1,16.5333333 42.1666667,16.5333333 42.2166667,16.5833333 C42.2166667,16.6 41.95,16.6833333 41.8666667,16.7833333 C41.8333333,16.8166667 41.8333333,16.8666667 41.8,16.9 C41.75,16.9333333 41.7333333,16.95 41.8166667,16.9833333 C41.8333333,16.9833333 42.2166667,16.8666667 42.35,16.8833333 C42.4833333,16.9 42.3666667,16.9666667 42.3333333,17 C42.3166667,17.0166667 42.3,17.1833333 42.2833333,17.2 C42.25,17.2333333 42.1333333,17.3 42.1166667,17.3333333 C42.0666667,17.4333333 42.8333333,17.5333333 42.7166667,17.5833333 C20.2333333,27.2 0.5,23.05 0.0333333333,22.85 C0.1,22.7333333 0.116666667,22.7166667 0.1,22.7 L0.1,22.7 Z" id="Path" fill="#F5F200"></path>
                            <path d="M85.5333333,16.9333333 C85.7666667,16.75 86.0166667,16.5666667 86.25,16.3666667 C88.4833333,14.65 90.8,12.8666667 90.8,10.2666667 C90.8,8.23333333 89.3333333,6.8 87.2333333,6.8 C85.3833333,6.8 83.4,8.03333333 83.4,10.75 C83.4,10.8666667 83.4,11 83.4166667,11.1166667 L84.9166667,10.5333333 C84.9166667,9.05 86.0333333,8.25 87.1333333,8.25 C88.2,8.25 89.2833333,8.93333333 89.2833333,10.4333333 C89.2833333,12.4 87.2833333,13.9333333 84.5166667,16.05 C84.1166667,16.35 83.7166667,16.6666667 83.2833333,17 L83.2666667,17.0166667 L83.2666667,18.4666667 L91.1333333,18.4666667 L91.1333333,16.9 L85.5333333,16.9 L85.5333333,16.9333333 Z M48,11.8666667 L47.8666667,11.8166667 C46.6333333,11.3166667 45.75,10.8833333 45.75,9.76666667 C45.75,8.66666667 46.6166667,8.1 47.4833333,8.1 C48.1833333,8.1 49.05,8.46666667 49.4,9.28333333 L50.8666667,8.71666667 L50.85,8.66666667 C50.2833333,7.23333333 48.7666667,6.6 47.5166667,6.6 C45.8833333,6.6 44.1166667,7.63333333 44.1166667,9.9 C44.1166667,12.1166667 45.8,12.8 47.1666667,13.35 L47.3333333,13.4166667 C48.7333333,13.9833333 49.6333333,14.45 49.6333333,15.5833333 C49.6333333,16.75 48.65,17.2833333 47.6666667,17.2833333 C46.6833333,17.2833333 45.55,16.7666667 45.2,15.3166667 L45.1833333,15.25 L43.6333333,15.8333333 C44.1,17.6333333 45.6333333,18.8 47.5833333,18.8 C48.5666667,18.8 49.4666667,18.5 50.15,17.95 C50.9166667,17.3333333 51.3166667,16.4666667 51.3166667,15.4166667 C51.3333333,13.1833333 49.5666667,12.4833333 48,11.8666667 L48,11.8666667 Z M64.4,9.81666667 C61.9833333,9.81666667 60.2333333,11.6833333 60.2333333,14.2666667 C60.2333333,16.85 61.9833333,18.7166667 64.4,18.7166667 C66.8166667,18.7166667 68.5666667,16.85 68.5666667,14.2666667 C68.5666667,11.7 66.8166667,9.81666667 64.4,9.81666667 L64.4,9.81666667 Z M67.0333333,14.2666667 C67.0333333,16.2333333 65.7166667,17.2666667 64.4166667,17.2666667 C63.1,17.2666667 61.7666667,16.2333333 61.7666667,14.2666667 C61.7666667,12.5333333 62.8833333,11.2833333 64.4166667,11.2833333 C65.9333333,11.2833333 67.0333333,12.55 67.0333333,14.2666667 L67.0333333,14.2666667 Z M74.95,14.9166667 C74.95,16.4833333 73.8,17.3166667 72.7166667,17.3166667 C71.9,17.3166667 71.0166667,16.8333333 71.0166667,15.45 L71.0166667,10.0333333 L69.5166667,10.0333333 L69.5166667,15.45 C69.5166667,17.85 71.0833333,18.7166667 72.4166667,18.7166667 C73.5,18.7166667 74.4333333,18.2 74.9333333,17.3666667 L75.2166667,18.5166667 L76.4333333,18.5166667 L76.4333333,10.0333333 L74.9333333,10.0333333 L74.9333333,14.9166667 L74.95,14.9166667 Z M80.35,7.61666667 L78.8666667,8.2 L78.8666667,10.05 L77.45,10.05 L77.45,11.4166667 L78.8666667,11.4166667 L78.8666667,16.0666667 C78.8666667,18.3833333 80.1833333,18.7333333 80.9666667,18.7333333 C81.3333333,18.7333333 81.7166667,18.6666667 82.0666667,18.5666667 L82.1166667,18.55 L82.1166667,17.0666667 L82.0166667,17.1333333 C81.8,17.2833333 81.55,17.35 81.3,17.3666667 C80.7,17.3666667 80.3666667,16.9333333 80.3666667,16.1833333 L80.3666667,11.4166667 L82.1333333,11.4166667 L82.1333333,10.05 L80.3666667,10.05 L80.3666667,7.61666667 L80.35,7.61666667 Z M98.0333333,14.1333333 L98.0333333,10.7 L96.5,11.2833333 L96.5,14.1333333 L93.0666667,14.1333333 L97.25,7 L95.55,7 L91.1166667,14.5333333 L91.1166667,15.6833333 L96.4833333,15.6833333 L96.4833333,18.5166667 L98.0166667,18.5166667 L98.0166667,15.6833333 L100,15.6833333 L100,14.1333333 L98.0333333,14.1333333 Z M58.4333333,15.95 C58.0166667,16.75 57.1666667,17.2666667 56.2666667,17.2666667 C55,17.2666667 53.7166667,16.3333333 53.7166667,14.2666667 C53.7166667,12.8333333 54.4833333,11.3 56.1666667,11.3 C57,11.3 57.7666667,11.75 58.15,12.4833333 L59.5833333,11.9333333 L59.55,11.8833333 C58.95,10.6166667 57.6666667,9.83333333 56.1666667,9.83333333 C55.1333333,9.81666667 54.15,10.2166667 53.4166667,10.9333333 C52.6,11.7333333 52.1833333,12.9 52.1833333,14.2833333 C52.1833333,17.3333333 54.2666667,18.7333333 56.2,18.7333333 C57.7,18.7333333 59.0333333,17.9166667 59.7666667,16.5333333 L59.8,16.4833333 L59.7833333,16.4833333 L58.4333333,15.95 Z" id="Shape" fill="#333333"></path>
                            <path d="M9.65,6.78333333 L8.08333333,6.78333333 L3.01666667,18.5166667 L4.86666667,18.5166667 L6.06666667,15.6166667 L11.6666667,15.6166667 L12.8666667,18.5166667 L14.7166667,18.5166667 L9.65,6.78333333 Z M11.0333333,14.1 L6.68333333,14.1 L8.86666667,8.85 L11.0333333,14.1 Z M20.35,10 L20.35,14.9 C20.35,16.45 19.2166667,17.3 18.1333333,17.3 C17.3166667,17.3 16.45,16.8166667 16.45,15.45 L16.45,10 L14.9333333,10 L14.9333333,15.4333333 C14.9333333,16.4666667 15.2333333,17.3333333 15.8333333,17.9166667 C16.3666667,18.45 17.1,18.7333333 17.85,18.7166667 C18.9166667,18.7166667 19.8666667,18.2166667 20.3666667,17.3833333 L20.65,18.5166667 L21.9,18.5166667 L21.9,10 L20.35,10 Z M27.6166667,11.4 L27.6166667,10 L25.85,10 L25.85,7.58333333 L24.3333333,8.16666667 L24.3333333,10 L22.9166667,10 L22.9166667,11.4 L24.3333333,11.4 L24.3333333,16.0333333 C24.3333333,18.3666667 25.6666667,18.7166667 26.45,18.7166667 C26.8166667,18.7166667 27.2,18.6666667 27.55,18.55 L27.6,18.5333333 L27.6,17 L27.4833333,17.0833333 C27.2666667,17.2166667 27.0166667,17.3 26.7666667,17.3166667 C26.1833333,17.3166667 25.8333333,16.8833333 25.8333333,16.1333333 L25.8333333,11.3833333 L27.6166667,11.3833333 L27.6166667,11.4 Z M32.4166667,9.78333333 C31.1833333,9.78333333 30.1333333,10.2333333 29.3666667,11.1 C28.6333333,11.9166667 28.2333333,13.0333333 28.2333333,14.25 C28.2333333,15.4666667 28.6333333,16.6 29.3666667,17.4 C30.1333333,18.25 31.2,18.7166667 32.4166667,18.7166667 C34.8333333,18.7166667 36.6,16.8333333 36.6,14.25 C36.6,11.6666667 34.8333333,9.78333333 32.4166667,9.78333333 L32.4166667,9.78333333 Z M32.4333333,17.25 C31.1166667,17.25 29.7833333,16.2166667 29.7833333,14.2666667 C29.7833333,12.55 30.9,11.3 32.4333333,11.3 C33.95,11.3 35.05,12.55 35.05,14.2666667 C35.0333333,16.2166667 33.7333333,17.2333333 32.4333333,17.25 L32.4333333,17.25 Z" id="Shape" fill="#333333"></path>
                        </g>
                    </g>
                </g>
            </g>
        </g>
    </g>
</svg>