<?xml version="1.0" encoding="UTF-8"?>
<svg width="114px" height="19px" viewBox="0 0 114 19" version="1.1" xmlns="http://www.w3.org/2000/svg" xmlns:xlink="http://www.w3.org/1999/xlink">
    <!-- Generator: Sketch 63.1 (92452) - https://sketch.com -->
    <title>autobutler-logo</title>
    <desc>Created with Sketch.</desc>
    <g id="Views" stroke="none" stroke-width="1" fill="none" fill-rule="evenodd">
        <g id="00.00-Homepage" transform="translate(-1086.000000, -5051.000000)" fill-rule="nonzero">
            <g id="bottom" transform="translate(0.000000, 4498.000000)">
                <g id="rates" transform="translate(108.000000, 551.000000)">
                    <g id="autobutler" transform="translate(978.000000, 2.000000)">
                        <g id="autobutler-logo">
                            <g id="Group" transform="translate(0.000000, 1.136364)" fill="#0067AC">
                                <path d="M4.54143519,12.407197 C4.25241402,12.6950758 4.06854332,13.0350379 4.06854332,13.4791667 C4.06854332,14.8390152 5.3546875,14.8655303 5.74847884,14.8655303 C6.56173115,14.8655303 7.21887401,14.5776515 7.63814484,14.2903409 C8.7942295,13.4797348 9.10854001,12.2767045 9.34375,11.3096591 C7.90149636,11.3356061 5.64351852,11.3617424 4.54143519,12.4073864 L4.54143519,12.407197 Z M8.45139716,17.349053 C8.40005787,17.1401515 8.32095734,16.9570076 8.32095734,16.7479167 C8.32095734,16.5907197 8.53068783,15.7278409 8.55635747,15.4668561 C8.2698082,15.9895833 8.05779597,16.3556818 7.34931382,16.8263258 C6.11679067,17.6628788 4.83064649,17.7410985 4.09402282,17.7410985 C0.105150463,17.7412879 0,14.4204545 0,13.9501894 C0,13.0613636 0.289021164,12.1725379 0.787582672,11.4662879 C2.3886078,9.21818182 5.32901786,9.06041667 9.94955357,8.79962121 C10.0801835,8.3280303 10.2106233,7.75340909 10.2106233,7.38731061 C10.2106233,6.10606061 8.87294974,6.00170455 8.34624669,6.00170455 C6.51020172,6.00170455 6.14208003,7.20397727 5.93234954,7.90984848 L1.88947586,7.77916667 C2.25797784,6.62878788 2.59814815,5.58333333 3.83295304,4.66856061 C5.30353836,3.56969697 7.24416336,3.43939394 8.79384921,3.43939394 C9.87045304,3.43939394 14.2021577,3.43939394 14.2021577,7.15227273 C14.2021577,7.80568182 14.0975777,8.43352273 13.9391865,9.06041667 L12.3640212,16.1200758 C12.3104001,16.3295455 12.2590608,16.5386364 12.2590608,16.774053 C12.2590608,16.9566288 12.3104001,17.1401515 12.3642113,17.3488636 L8.45139716,17.3488636 L8.45139716,17.349053 Z M29.5809358,3.88390152 L26.5353753,17.349053 L22.4928819,17.349053 L22.8864831,15.5714015 C22.2038608,16.3037879 21.1015873,17.4535985 18.9765212,17.4535985 C17.0075645,17.4535985 15.2226687,16.250947 15.2226687,14.1590909 C15.2226687,13.6363636 15.3531085,12.9829545 15.4580688,12.4337121 L17.375496,3.88371212 L21.4440394,3.88371212 L19.6591435,11.8060606 C19.6055225,12.0933712 19.5545635,12.3810606 19.5545635,12.6948864 C19.5545635,13.4013258 19.7641038,14.3160985 21.0757275,14.3160985 C21.2856481,14.3160985 21.6794395,14.3160985 22.2318122,14.0285985 C23.254795,13.4534091 23.5434358,12.5645833 23.8837963,11.2304924 L25.5380622,3.88390152 L29.5809358,3.88390152 L29.5809358,3.88390152 Z M36.9557292,0.0662878788 L36.1168072,3.80530303 L38.451794,3.80530303 L37.901703,6.23674242 L35.5648148,6.23674242 L34.2782903,11.8585227 C34.1991898,12.2505682 34.0944196,12.7473485 34.0944196,13.0090909 C34.0944196,14.1329545 34.8820023,14.1852273 35.6182457,14.2113636 L36.4060185,14.2113636 L35.6952546,17.3231061 C34.9356233,17.4276515 34.1480407,17.5320076 33.3602679,17.5320076 C32.6776455,17.5320076 32.0206928,17.4534091 31.4428406,17.2185606 C30.4991485,16.8524621 29.7629051,16.0679924 29.7629051,14.5774621 C29.7629051,14.1068182 29.8674851,13.6102273 29.9469659,13.1393939 L31.4966518,6.23655303 L29.6579448,6.23655303 L30.2101273,3.80530303 L32.0208829,3.80530303 L32.8875661,0.0662878788 L36.9561095,0.0662878788 L36.9557292,0.0662878788 Z M41.6532738,11.4401515 C41.6532738,12.9568182 42.3358962,14.5513258 44.3305225,14.5513258 C47.0077712,14.5513258 47.9005043,11.4403409 47.9005043,9.66268939 C47.9005043,8.7469697 47.7164435,8.14564394 47.4555638,7.72765152 C47.0615823,7.12670455 46.2739997,6.525 45.1439649,6.57708333 C42.7810268,6.68125 41.653464,9.42708333 41.653464,11.4407197 L41.6532738,11.4401515 Z M52.0483383,9.71496212 C52.0483383,13.5583333 49.161169,17.7418561 44.0953125,17.7418561 C38.7664848,17.7418561 37.5569692,13.5842803 37.5569692,11.2835227 C37.5569692,7.8842803 40.2087384,3.41363636 45.4866071,3.41363636 C49.9485615,3.41363636 52.0481481,6.47234848 52.0481481,9.71477273 L52.0483383,9.71496212 Z" id="Shape"></path>
                            </g>
                            <g id="Group" transform="translate(53.050595, 0.000000)" fill="#FCB034">
                                <path d="M7.91956019,7.60833333 C6.5025959,7.60833333 5.08373016,8.36685606 4.24499835,9.96193182 C3.74624669,10.9287879 3.29883433,12.6808712 3.29883433,13.8835227 C3.29883433,16.6032197 5.1114914,17.1780303 6.26510417,17.1780303 C7.31565807,17.1780303 8.36678241,16.7339015 9.10074405,16.0276515 C10.3075976,14.8770833 10.9647404,12.7068182 10.9904101,11.1119318 C11.0440311,8.49772727 9.44338624,7.60852273 7.91956019,7.60852273 L7.91956019,7.60833333 Z M6.29286541,0 L4.4541584,7.97462121 C4.74317956,7.55606061 5.13678075,7.03371212 5.976083,6.56287879 C6.81709656,6.11780303 7.73530919,5.93522727 8.49703208,5.93522727 C11.4891617,5.93522727 13.0898065,8.23636364 13.0898065,11.0598485 C13.0898065,12.6287879 12.2767444,18.7208333 6.3442047,18.7208333 C3.32659557,18.7208333 2.82784392,17.1784091 2.5390129,16.2109848 L2.01230985,18.4856061 L0.0176835317,18.4856061 L4.29614749,0 L6.29305556,0 L6.29286541,0 Z M27.1839616,6.17045455 L24.3507937,18.4856061 L22.3569279,18.4856061 L22.8018684,16.5505682 C22.4337467,16.9950758 22.0399554,17.4662879 21.2521825,17.9369318 C20.3341601,18.4596591 19.2575562,18.7210227 18.2859127,18.7210227 C16.2912864,18.7210227 14.8750827,17.6229167 14.8750827,15.8450758 C14.8750827,15.3479167 14.9260417,15.0867424 15.2686839,13.517803 L16.9488095,6.17121212 L19.0225364,6.17121212 L17.3424107,13.4918561 C17.0792493,14.8251894 17.0533896,14.9823864 17.0533896,15.3217803 C17.0533896,15.6096591 17.1047288,15.8975379 17.2378307,16.1583333 C17.4987103,16.6034091 18.1813327,17.0479167 19.232457,17.0479167 C19.9941799,17.0479167 20.8867229,16.8123106 21.5950149,16.3679924 C23.1447007,15.4005682 23.4843006,13.6744318 23.9573826,11.6092803 L25.2174769,6.17083333 L27.1843419,6.17083333 L27.1843419,6.17045455 L27.1839616,6.17045455 Z M32.7483796,6.17045455 L34.9270668,6.17045455 L34.5589451,7.76515152 L32.3804481,7.76515152 L30.8050926,14.5107955 C30.7005126,14.9299242 30.5164517,15.7399621 30.5164517,16.1058712 C30.5164517,16.7598485 31.0150132,16.8642045 31.436756,16.8642045 C31.6717758,16.8642045 31.7767361,16.8382576 32.8533399,16.655303 L32.4854084,18.1977273 C31.8818866,18.4594697 31.1992642,18.5638258 30.5164517,18.5638258 C28.9947173,18.5638258 28.4704861,17.8054924 28.4704861,16.838447 C28.4704861,16.2632576 28.6009259,15.5831439 28.7595073,14.9299242 L30.4113013,7.76515152 L28.4421544,7.76515152 L28.8104663,6.17045455 L30.7792328,6.17045455 L31.6713955,2.30056818 L33.6403522,2.30056818 L32.7487599,6.17045455 L32.7483796,6.17045455 Z M40.3587632,0.0261363636 L36.0804894,18.4856061 L34.0326224,18.4856061 L38.3105159,0.0261363636 L40.3587632,0.0261363636 Z M49.3880126,11.0337121 C49.415964,10.8246212 49.415964,10.6676136 49.415964,10.4848485 C49.415964,8.44507576 48.0246693,7.42613636 46.6594246,7.42613636 C45.7387401,7.42613636 43.3786541,7.97481061 42.4070106,11.0335227 L49.3880126,11.0335227 L49.3880126,11.0337121 Z M50.9373181,15.0081439 C49.6511739,18.1715909 46.7898644,18.7732955 45.0047784,18.7732955 C41.9335483,18.7732955 39.9393022,16.8121212 39.9393022,13.54375 C39.9393022,9.83106061 42.3275298,5.85719697 46.7898644,5.85719697 C50.0194858,5.85719697 51.4360698,7.975 51.4360698,10.9032197 C51.4360698,11.6356061 51.3567791,12.0537879 51.2774884,12.5244318 L42.0130291,12.5244318 C41.9850777,12.8643939 41.9592179,13.1255682 41.9592179,13.4392045 C41.9592179,16.5767045 44.3474454,17.1784091 45.4499091,17.1784091 C45.9226108,17.1784091 46.3702133,17.1001894 46.7896743,16.9170455 C48.2062583,16.3943182 48.6791501,15.3479167 48.9938409,14.6683712 L50.937128,15.0085227 L50.9373181,15.0081439 Z M60.4909888,7.89621212 C59.7825066,7.87026515 59.0462632,7.84393939 58.2073413,8.3405303 C56.5785549,9.30776515 56.0286541,11.5829545 55.7654927,12.6808712 L54.4280093,18.4857955 L52.4311012,18.4857955 L55.2669312,6.17064394 L57.2895089,6.17064394 L56.7886657,8.34109848 C57.1052579,7.79147727 57.2613674,7.50397727 58.0234706,6.87651515 C58.4427414,6.51041667 59.0996941,5.93522727 60.4373677,5.93522727 C60.5957589,5.93522727 60.7541501,5.93522727 60.9355489,5.96174242 L60.4906085,7.89640152 L60.4909888,7.89621212 Z" id="Shape"></path>
                            </g>
                        </g>
                    </g>
                </g>
            </g>
        </g>
    </g>
</svg>