<?xml version="1.0" encoding="utf-8"?>
<!-- Generator: Adobe Illustrator 25.0.0, SVG Export Plug-In . SVG Version: 6.00 Build 0)  -->
<svg version="1.1" id="Ebene_1" xmlns="http://www.w3.org/2000/svg" xmlns:xlink="http://www.w3.org/1999/xlink" x="0px" y="0px"
	 viewBox="0 0 90 38.8" style="enable-background:new 0 0 90 38.8;" xml:space="preserve">
<style type="text/css">
	.st0{fill-rule:evenodd;clip-rule:evenodd;fill:#A6A6A6;}
</style>
<path class="st0" d="M12.3,37.1h6.8c-1-1-1.7-2.4-1.7-4c0-3.1,2.5-5.6,5.6-5.6s5.6,2.5,5.6,5.6c0,1.6-0.6,3-1.7,4h35.7
	c-1-1-1.7-2.4-1.7-4c0-3.1,2.5-5.6,5.6-5.6c3.1,0,5.6,2.5,5.6,5.6c0,1.6-0.6,3-1.7,4h5.4v1.6H12.3V37.1L12.3,37.1z M69,33.2
	c0,1.3-1,2.3-2.3,2.3s-2.3-1-2.3-2.3H66c0,0.4,0.3,0.7,0.7,0.7c0.4,0,0.7-0.3,0.7-0.7H69L69,33.2z M66.7,29.2c2.2,0,4,1.8,4,4
	s-1.8,4-4,4s-4-1.8-4-4C62.7,31,64.5,29.2,66.7,29.2L66.7,29.2z M25.4,33.2c0,1.3-1,2.3-2.3,2.3s-2.3-1-2.3-2.3h1.6
	c0,0.4,0.3,0.7,0.7,0.7c0.4,0,0.7-0.3,0.7-0.7H25.4L25.4,33.2z M23,29.2c2.2,0,4,1.8,4,4s-1.8,4-4,4s-4-1.8-4-4
	C19.1,31,20.8,29.2,23,29.2L23,29.2z M12.3,33.9l-1.6-3.3v-3.3h1.6l1.6-1.6h-3.3l3.3-3.3l4.9-1.6h4.9l-3.3-1.6l6.5-4.9l9.8-1.6h13.1
	L63,19.1h-3.3l-9.8-4.9H38.5l-4.9,1.6L32,17.4l3.3,3.3h1.6l1.6-4.9v4.9H68l6.5,1.6l3.3,1.6h-3.3l1.6,1.6l3.3,1.6v3.3V32l-3.3,3.3
	h-2.5c0.3-0.7,0.4-1.5,0.4-2.3c0-4-3.3-7.3-7.3-7.3s-7.3,3.2-7.3,7.3c0,0.8,0.1,1.6,0.4,2.3H29.9c0.3-0.7,0.4-1.5,0.4-2.3
	c0-4-3.3-7.3-7.3-7.3s-7.3,3.2-7.3,7.3c0,0.8,0.1,1.6,0.4,2.3h-0.6L12.3,33.9L12.3,33.9z M13.5,32.6l0.7,0.3c0.1-4.8,4-8.7,8.9-8.7
	s8.9,4,8.9,8.9c0,0.2,0,0.5,0,0.7h25.9c0-0.2,0-0.5,0-0.7c0-4.9,4-8.9,8.9-8.9s8.9,4,8.9,8.9c0,0.2,0,0.4,0,0.6l2.2-2.2v-1v-2.3
	L75.1,27l-3.7-3.7l-3.7-0.9H34.5l-4.9-4.9L32,15l-4.4,0.7l-4.1,3.1l7.1,3.6H19.1l-4.3,1.4L14.6,24h3.3L13,28.9h-0.7v1.3L13.5,32.6
	L13.5,32.6z"/>
</svg>
