<?xml version="1.0" encoding="utf-8"?>
<!-- Generator: Adobe Illustrator 25.0.0, SVG Export Plug-In . SVG Version: 6.00 Build 0)  -->
<svg version="1.1" id="Ebene_1" xmlns="http://www.w3.org/2000/svg" xmlns:xlink="http://www.w3.org/1999/xlink" x="0px" y="0px"
	 viewBox="0 0 90 38.8" style="enable-background:new 0 0 90 38.8;" xml:space="preserve">
<style type="text/css">
	.st0{fill:#A6A6A6;}
</style>
<g>
	<path class="st0" d="M73.7,33.9c-0.4,0-0.7-0.3-0.7-0.7h-1.6c0,1.3,1,2.3,2.3,2.3s2.3-1,2.3-2.3h-1.6
		C74.4,33.5,74.1,33.9,73.7,33.9z"/>
	<path class="st0" d="M16.1,33.9c-0.4,0-0.7-0.3-0.7-0.7h-1.6c0,1.3,1,2.3,2.3,2.3s2.3-1,2.3-2.3h-1.6
		C16.9,33.5,16.5,33.9,16.1,33.9z"/>
	<path class="st0" d="M86.7,26.4h-1.6l-1.6-1.6l1.6-1.6l-1.6-1.6L77,18.3h-6.5L54,16.6L52.4,15v-3.3h13.1l6.5,4.9h3.3L63.8,8.4
		l-4.9-1.6H8.2L6.5,8.4l-1.6,9.8h21.3l1.6,1.6H4.9v3.3v1.6H3.3V28l1.6,3.3l4,2.7c0-0.3-0.1-0.6-0.1-0.9c0-4,3.2-7.3,7.3-7.3
		c4,0,7.3,3.2,7.3,7.3c0,0.5-0.1,1-0.1,1.5h43.4c-0.1-0.5-0.1-1-0.1-1.5c0-4,3.2-7.3,7.3-7.3c4,0,7.3,3.2,7.3,7.3
		c0,0.5-0.1,1-0.1,1.5h2.6l3.3-3.3L86.7,26.4z M82.8,33h-0.2c-0.1-4.8-4-8.7-8.9-8.7c-4.8,0-8.8,3.9-8.9,8.7H25
		c-0.1-4.8-4-8.7-8.9-8.7c-4.2,0-7.7,2.9-8.6,6.8l-1.3-0.9l-1.3-2.5v-1.3h1.6v-4.9h25.2l-4.9-4.9h-20L8,9.2l0.9-0.8h49.8l4.4,1.5
		l0.2,0.2H50.7v5.6l2.5,2.5l17,1.7h6.2l6,3l0.3,0.3l-1.6,1.6l3.3,3.3h0.7v2.6L82.8,33z"/>
	<path class="st0" d="M79.3,33.2c0-3.1-2.5-5.6-5.6-5.6s-5.6,2.5-5.6,5.6c0,1.6,0.6,3,1.7,4H20.1c1-1,1.7-2.4,1.7-4
		c0-3.1-2.5-5.6-5.6-5.6s-5.6,2.5-5.6,5.6c0,1.6,0.6,3,1.7,4H4.9v1.6h78.5v-1.6h-5.8C78.7,36.1,79.3,34.7,79.3,33.2z M16.1,37.1
		c-2.2,0-4-1.8-4-4s1.8-4,4-4s4,1.8,4,4C20.1,35.4,18.3,37.1,16.1,37.1z M73.7,37.1c-2.2,0-4-1.8-4-4s1.8-4,4-4s4,1.8,4,4
		C77.7,35.4,75.9,37.1,73.7,37.1z"/>
	<polygon class="st0" points="45.8,14.1 32.2,14.1 32.2,10.1 30.7,10.1 30.7,15.7 47.3,15.7 47.3,10.1 45.8,10.1 	"/>
</g>
</svg>
