<?xml version="1.0" encoding="utf-8"?>
<!-- Generator: Adobe Illustrator 25.0.0, SVG Export Plug-In . SVG Version: 6.00 Build 0)  -->
<svg version="1.1" id="Ebene_1" xmlns="http://www.w3.org/2000/svg" xmlns:xlink="http://www.w3.org/1999/xlink" x="0px" y="0px"
	 viewBox="0 0 90 38.8" style="enable-background:new 0 0 90 38.8;" xml:space="preserve">
<style type="text/css">
	.st0{fill-rule:evenodd;clip-rule:evenodd;fill:#A6A6A6;}
</style>
<path class="st0" d="M11.5,32.2v-4.9l3.3-3.3h-3.3l1.6-3.3l6.5-6.5l4.9-1.6h21.3l4.9,1.6l9.8,6.5h-3.3l-6.5-4.9l-4.9-1.6h-18
	l-3.3,3.3v1.6l1.6,1.6l13.1,1.6l-1.6-6.5h1.6l1.6,6.5h29.5l6.5,1.6l1.6,1.6v1.6h-1.6V29l1.6,1.6v1.6l-1.6,3.3h-4.3
	c0.3-0.7,0.4-1.5,0.4-2.3c0-4-3.3-7.3-7.3-7.3s-7.3,3.2-7.3,7.3c0,0.8,0.1,1.6,0.4,2.3H29.8c0.3-0.7,0.4-1.5,0.4-2.3
	c0-4-3.3-7.3-7.3-7.3s-7.3,3.2-7.3,7.3c0,0.8,0.1,1.6,0.4,2.3h-1.3L11.5,32.2L11.5,32.2z M65.7,27.5c3.1,0,5.6,2.5,5.6,5.6
	c0,1.6-0.6,3-1.7,4h5.6v1.6H13.1v-1.6h5.8c-1-1-1.7-2.4-1.7-4c0-3.1,2.5-5.6,5.6-5.6s5.6,2.5,5.6,5.6c0,1.6-0.6,3-1.7,4h34.9
	c-1-1-1.7-2.4-1.7-4C60.1,30.1,62.6,27.5,65.7,27.5L65.7,27.5z M68.1,33.2c0,1.3-1,2.3-2.3,2.3s-2.3-1-2.3-2.3H65
	c0,0.4,0.3,0.7,0.7,0.7s0.7-0.3,0.7-0.7H68.1L68.1,33.2z M65.7,29.2c2.2,0,4,1.8,4,4s-1.8,4-4,4c-2.2,0-4-1.8-4-4
	C61.8,31,63.5,29.2,65.7,29.2L65.7,29.2z M25.2,33.2c0,1.3-1,2.3-2.3,2.3s-2.3-1-2.3-2.3h1.6c0,0.4,0.3,0.7,0.7,0.7s0.7-0.3,0.7-0.7
	H25.2L25.2,33.2z M22.9,29.2c2.2,0,4,1.8,4,4s-1.8,4-4,4s-4-1.8-4-4S20.7,29.2,22.9,29.2L22.9,29.2z M13.1,31.5l0.9,0.9
	c0.3-4.6,4.2-8.2,8.9-8.2c4.9,0,8.9,4,8.9,8.9c0,0.2,0,0.5,0,0.7h25.1c0-0.2,0-0.5,0-0.7c0-4.9,4-8.9,8.9-8.9s8.9,4,8.9,8.9
	c0,0.2,0,0.5,0,0.7H76l1-2v-0.6l-1.6-1.6v-4h1l-0.2-0.2l-6-1.4h-31l-13.8-1.7l-2.5-2.5v-3l2.6-2.6h-0.7l-4.3,1.4l-6.1,6.1l-0.3,0.7
	h4.6L13.1,28V31.5L13.1,31.5z"/>
</svg>
