<svg xmlns="http://www.w3.org/2000/svg" width="64" height="64" viewBox="0 0 64 64">
  <g fill="none" fill-rule="evenodd">
    <rect width="64" height="64"/>
    <path fill="#FFF" fill-rule="nonzero" d="M55.763932,35 C56.8334061,35 57.8164896,35.5686984 58.3521155,36.4829434 L58.4472136,36.6583592 L60.118,40 L63,40 C63.5522847,40 64,40.4477153 64,41 L64,42 C64,42.3343532 63.8328989,42.6465845 63.5547002,42.8320503 L62.6053174,43.4651911 C63.3912267,43.9639568 63.9293513,44.8181563 63.9935469,45.8016453 L64,46 L64,53 C64,54.3058822 63.1656226,55.4168852 62.0009007,55.8289758 L62,58 C62,59.0543618 61.1841222,59.9181651 60.1492623,59.9945143 L60,60 L57,60 C55.9456382,60 55.0818349,59.1841222 55.0054857,58.1492623 L55,58 L55,56 L39,56 L39,58 C39,59.0543618 38.1841222,59.9181651 37.1492623,59.9945143 L37,60 L34,60 C32.9456382,60 32.0818349,59.1841222 32.0054857,58.1492623 L32,58 L32.0000889,55.8293257 C30.893112,55.438105 30.084311,54.4156297 30.0061983,53.1944123 L30,53 L30,46 C30,45.1439586 30.3585453,44.37166 30.9336546,43.8250855 L29.4452998,42.8320503 C29.201876,42.6697677 29.0435112,42.4104303 29.0077235,42.1241411 L29,42 L29,41 C29,40.4871642 29.3860402,40.0644928 29.8833789,40.0067277 L30,40 L33,40 C33.2857641,40 33.5435322,40.1198646 33.7257697,40.312059 L35.5527864,36.6583592 C36.0310697,35.7017925 36.9793773,35.0768256 38.0366421,35.00661 L38.236068,35 L55.763932,35 Z M37,56 L34,56 L34,58 L37,58 L37,56 Z M60,56 L57,56 L57,58 L60,58 L60,56 Z M61,45 L33,45 C32.4871642,45 32.0644928,45.3860402 32.0067277,45.8833789 L32,46 L32,53 C32,53.5128358 32.3860402,53.9355072 32.8833789,53.9932723 L33,54 L61,54 C61.5128358,54 61.9355072,53.6139598 61.9932723,53.1166211 L62,53 L62,46 C62,45.4871642 61.6139598,45.0644928 61.1166211,45.0067277 L61,45 Z M39,47 C39.6424073,47 40.1071307,47.5923403 39.9796308,48.2018783 L39.9486833,48.3162278 L38.9486833,51.3162278 C38.8249433,51.6874479 38.4978769,51.9488234 38.1160442,51.9932782 L38,52 L35,52 C34.4871642,52 34.0644928,51.6139598 34.0067277,51.1166211 L34,51 L34,48 C34,47.4871642 34.3860402,47.0644928 34.8833789,47.0067277 L35,47 L39,47 Z M59.0007666,47 C59.5530514,47 60.0007666,47.4477153 60.0007666,48 L60.0007666,51 C60.0007666,51.5522847 59.5530514,52 59.0007666,52 L56.0007666,52 C55.5703362,52 55.1881974,51.7245699 55.0520833,51.3162278 L54.0520833,48.3162278 C53.8362396,47.6686967 54.3182089,47 55.0007666,47 L59.0007666,47 Z M51,48 C51.5522847,48 52,48.4477153 52,49 L52,50 C52,50.5522847 51.5522847,51 51,51 L43,51 C42.4477153,51 42,50.5522847 42,50 L42,49 C42,48.4477153 42.4477153,48 43,48 L51,48 Z M37.612,49 L36,49 L36,50 L37.279,50 L37.612,49 Z M58.0007666,49 L56.3887666,49 L56.7217666,50 L58.0007666,50 L58.0007666,49 Z M22.6128994,4.20970461 L22.7071068,4.29289322 L43.7071068,25.2928932 C44.0976311,25.6834175 44.0976311,26.3165825 43.7071068,26.7071068 C43.3466228,27.0675907 42.7793918,27.0953203 42.3871006,26.7902954 L42.2928932,26.7071068 L39,23.415 L39,30 C39,30.5522847 38.5522847,31 38,31 C37.4871642,31 37.0644928,30.6139598 37.0067277,30.1166211 L37,30 L37,21.415 L22,6.415 L7,21.414 L7,40 C7,40.5128358 7.38604019,40.9355072 7.88337887,40.9932723 L8,41 L18,41 L18,30 C18,28.4023191 19.24892,27.0963391 20.8237272,27.0050927 L21,27 L24,27 C25.5976809,27 26.9036609,28.24892 26.9949073,29.8237272 L27,30 L27,42 C27,42.5128358 26.6139598,42.9355072 26.1166211,42.9932723 L26,43 L8,43 C6.40231912,43 5.09633912,41.75108 5.00509269,40.1762728 L5,40 L5,23.414 L1.70710678,26.7071068 C1.34662282,27.0675907 0.779391764,27.0953203 0.387100557,26.7902954 L0.292893219,26.7071068 C-0.0675907428,26.3466228 -0.0953202783,25.7793918 0.209704612,25.3871006 L0.292893219,25.2928932 L21.2928932,4.29289322 C21.6533772,3.93240926 22.2206082,3.90467972 22.6128994,4.20970461 Z M55.763932,37 L38.236068,37 C37.8993817,37 37.5883815,37.1690883 37.4044575,37.4446023 L37.3416408,37.5527864 L34.617,43 L59,43 L59,42.236 L56.6583592,37.5527864 C56.5266099,37.2892877 56.2878644,37.1012742 56.0100464,37.030725 L55.8887873,37.0078036 L55.763932,37 Z M24,29 L21,29 C20.4871642,29 20.0644928,29.3860402 20.0067277,29.8833789 L20,30 L20,41 L25,41 L25,30 C25,29.5266131 24.6710663,29.1300527 24.2292908,29.0264107 L24.1166211,29.0067277 L24,29 Z"/>
  </g>
</svg>
