<?xml version="1.0" encoding="utf-8"?>
<!-- Generator: Adobe Illustrator 25.0.1, SVG Export Plug-In . SVG Version: 6.00 Build 0)  -->
<svg version="1.1" id="Ebene_1" xmlns="http://www.w3.org/2000/svg" xmlns:xlink="http://www.w3.org/1999/xlink" x="0px" y="0px"
	 viewBox="0 0 38 38" style="enable-background:new 0 0 38 38;" xml:space="preserve">
<style type="text/css">
	.st0{fill:#A6A6A6;}
</style>
<g>
	<path class="st0" d="M37.7,11.5c0-5.2-4.2-9.5-9.5-9.5c-4.7,0-8.5,3.4-9.3,7.8H9.3c-1,0-1.9,0.5-2.4,1.4l-4.2,7.2
		c-1.4,0.2-2.4,1.3-2.4,2.7v7.3c0,1.5,1.1,2.6,2.6,2.7v2.1c0,1.5,1.2,2.8,2.8,2.8h0.9c1.5,0,2.8-1.2,2.8-2.8v-2.1h16.1v2.1
		c0,1.5,1.2,2.8,2.8,2.8H29c1.5,0,2.8-1.2,2.8-2.8V31c1.3-0.2,2.4-1.3,2.4-2.7V21c0-0.6-0.2-1.2-0.6-1.7
		C36,17.7,37.7,14.8,37.7,11.5z M8.3,12c0.2-0.4,0.6-0.6,1.1-0.6h9.4v0.1c0,2.7,1.2,5.2,3,6.9H4.5L8.3,12z M7.8,33.3
		c0,0.7-0.6,1.3-1.3,1.3H5.6c-0.7,0-1.3-0.6-1.3-1.3v-2.1h3.4L7.8,33.3L7.8,33.3z M30.2,33.3c0,0.7-0.6,1.3-1.3,1.3H28
		c-0.7,0-1.3-0.6-1.3-1.3v-2.1h3.4L30.2,33.3L30.2,33.3z M32.6,21.1v7.3c0,0.7-0.6,1.3-1.3,1.3h-6h-16H3.1c-0.7,0-1.3-0.6-1.3-1.3
		v-7.3c0-0.7,0.6-1.3,1.3-1.3h20.5h0.3c1.3,0.7,2.8,1.1,4.4,1.1c1.4,0,2.7-0.3,3.8-0.8C32.4,20.4,32.6,20.7,32.6,21.1z M28.2,19.4
		c-4.4,0-8-3.6-8-8s3.6-8,8-8s8,3.6,8,8S32.6,19.4,28.2,19.4z"/>
	<path class="st0" d="M7.1,21.8c-1.8,0-3.2,1.4-3.2,3.2s1.4,3.2,3.2,3.2s3.2-1.4,3.2-3.2S8.9,21.8,7.1,21.8z M7.1,26.8
		c-1,0-1.7-0.8-1.7-1.7s0.8-1.7,1.7-1.7s1.7,0.8,1.7,1.7S8,26.8,7.1,26.8z"/>
	<path class="st0" d="M24,25c0,1.8,1.4,3.2,3.2,3.2s3.2-1.4,3.2-3.2s-1.4-3.2-3.2-3.2S24,23.3,24,25z M28.9,25c0,1-0.8,1.7-1.7,1.7
		S25.5,26,25.5,25s0.8-1.7,1.7-1.7S28.9,24.1,28.9,25z"/>
	<polygon class="st0" points="28.1,11.9 25.1,10.1 24.3,11.3 28.4,13.9 32.9,8.8 31.7,7.8 	"/>
	<path class="st0" d="M12,27.1h10.3V23H12V27.1z M13.5,24.6h7.3v1.1h-7.3C13.5,25.7,13.5,24.6,13.5,24.6z"/>
</g>
</svg>
