<?xml version="1.0" encoding="UTF-8"?>
<svg width="72px" height="24px" viewBox="0 0 72 24" version="1.1" xmlns="http://www.w3.org/2000/svg" xmlns:xlink="http://www.w3.org/1999/xlink">
    <!-- Generator: Sketch 63.1 (92452) - https://sketch.com -->
    <title>google-logo</title>
    <desc>Created with Sketch.</desc>
    <g id="Views" stroke="none" stroke-width="1" fill="none" fill-rule="evenodd">
        <g id="00.00-Homepage" transform="translate(-108.000000, -5049.000000)" fill-rule="nonzero">
            <g id="bottom" transform="translate(0.000000, 4498.000000)">
                <g id="rates" transform="translate(108.000000, 551.000000)">
                    <g id="Google">
                        <g id="google-logo">
                            <path d="M30.8666667,12.5813333 C30.8666667,15.9866667 28.2026667,18.496 24.9333333,18.496 C21.664,18.496 19,15.9866667 19,12.5813333 C19,9.152 21.664,6.66666667 24.9333333,6.66666667 C28.2026667,6.66666667 30.8666667,9.152 30.8666667,12.5813333 Z M28.2693333,12.5813333 C28.2693333,10.4533333 26.7253333,8.99733333 24.9333333,8.99733333 C23.1413333,8.99733333 21.5973333,10.4533333 21.5973333,12.5813333 C21.5973333,14.688 23.1413333,16.1653333 24.9333333,16.1653333 C26.7253333,16.1653333 28.2693333,14.6853333 28.2693333,12.5813333 Z" id="Shape" fill="#EA4335"></path>
                            <path d="M43.6666667,12.5813333 C43.6666667,15.9866667 41.0026667,18.496 37.7333333,18.496 C34.464,18.496 31.8,15.9866667 31.8,12.5813333 C31.8,9.15466667 34.464,6.66666667 37.7333333,6.66666667 C41.0026667,6.66666667 43.6666667,9.152 43.6666667,12.5813333 Z M41.0693333,12.5813333 C41.0693333,10.4533333 39.5253333,8.99733333 37.7333333,8.99733333 C35.9413333,8.99733333 34.3973333,10.4533333 34.3973333,12.5813333 C34.3973333,14.688 35.9413333,16.1653333 37.7333333,16.1653333 C39.5253333,16.1653333 41.0693333,14.6853333 41.0693333,12.5813333 Z" id="Shape" fill="#FBBC05"></path>
                            <path d="M55.9333333,7.024 L55.9333333,17.6426667 C55.9333333,22.0106667 53.3573333,23.7946667 50.312,23.7946667 C47.4453333,23.7946667 45.72,21.8773333 45.0693333,20.3093333 L47.3306667,19.368 C47.7333333,20.3306667 48.72,21.4666667 50.3093333,21.4666667 C52.2586667,21.4666667 53.4666667,20.264 53.4666667,18 L53.4666667,17.1493333 L53.376,17.1493333 C52.7946667,17.8666667 51.6746667,18.4933333 50.2613333,18.4933333 C47.304,18.4933333 44.5946667,15.9173333 44.5946667,12.6026667 C44.5946667,9.264 47.304,6.66666667 50.2613333,6.66666667 C51.672,6.66666667 52.792,7.29333333 53.376,7.98933333 L53.4666667,7.98933333 L53.4666667,7.02666667 L55.9333333,7.02666667 L55.9333333,7.024 Z M53.6506667,12.6026667 C53.6506667,10.52 52.2613333,8.99733333 50.4933333,8.99733333 C48.7013333,8.99733333 47.2,10.52 47.2,12.6026667 C47.2,14.664 48.7013333,16.1653333 50.4933333,16.1653333 C52.2613333,16.1653333 53.6506667,14.664 53.6506667,12.6026667 Z" id="Shape" fill="#4285F4"></path>
                            <polygon id="Path" fill="#34A853" points="60 0.8 60 18.1333333 57.4666667 18.1333333 57.4666667 0.8"></polygon>
                            <path d="M69.872,14.528 L71.888,15.872 C71.2373333,16.8346667 69.6693333,18.4933333 66.96,18.4933333 C63.6,18.4933333 61.0906667,15.896 61.0906667,12.5786667 C61.0906667,9.06133333 63.6213333,6.664 66.6693333,6.664 C69.7386667,6.664 71.24,9.10666667 71.7306667,10.4266667 L72,11.0986667 L64.0933333,14.3733333 C64.6986667,15.56 65.64,16.1653333 66.96,16.1653333 C68.2826667,16.1653333 69.2,15.5146667 69.872,14.528 Z M63.6666667,12.4 L68.952,10.2053333 C68.6613333,9.46666667 67.7866667,8.952 66.7573333,8.952 C65.4373333,8.952 63.6,10.1173333 63.6666667,12.4 L63.6666667,12.4 Z" id="Shape" fill="#EA4335"></path>
                            <path d="M9.41066667,11.0426667 L9.41066667,8.53333333 L17.8666667,8.53333333 C17.9493333,8.97066667 17.992,9.488 17.992,10.048 C17.992,11.9306667 17.4773333,14.2586667 15.8186667,15.9173333 C14.2053333,17.5973333 12.144,18.4933333 9.41333333,18.4933333 C4.352,18.4933333 0.096,14.3706667 0.096,9.30933333 C0.096,4.248 4.352,0.125333333 9.41333333,0.125333333 C12.2133333,0.125333333 14.208,1.224 15.7066667,2.656 L13.936,4.42666667 C12.8613333,3.41866667 11.4053333,2.63466667 9.41066667,2.63466667 C5.71466667,2.63466667 2.824,5.61333333 2.824,9.30933333 C2.824,13.0053333 5.71466667,15.984 9.41066667,15.984 C11.808,15.984 13.1733333,15.0213333 14.048,14.1466667 C14.7573333,13.4373333 15.224,12.424 15.408,11.04 L9.41066667,11.0426667 Z" id="Path" fill="#4285F4"></path>
                        </g>
                    </g>
                </g>
            </g>
        </g>
    </g>
</svg>