<?xml version="1.0" encoding="UTF-8"?>
<svg width="20px" height="20px" viewBox="0 0 20 20" version="1.1" xmlns="http://www.w3.org/2000/svg" xmlns:xlink="http://www.w3.org/1999/xlink">
    <!-- Generator: Sketch 63.1 (92452) - https://sketch.com -->
    <title>Google-loog</title>
    <desc>Created with Sketch.</desc>
    <g id="Views" stroke="none" stroke-width="1" fill="none" fill-rule="evenodd">
        <g id="00.00-Homepage" transform="translate(-656.000000, -4889.000000)">
            <g id="bottom" transform="translate(0.000000, 4498.000000)">
                <g id="opinions" transform="translate(60.000000, 96.000000)">
                    <g id="item" transform="translate(48.000000, 91.000000)">
                        <g id="Google-loog" transform="translate(548.000000, 204.000000)">
                            <rect id="Rectangle" x="0" y="0" width="20" height="20"></rect>
                            <path d="M9.99965846,0.000673865683 C12.4834991,-0.0287206978 14.8828303,0.904556693 16.690596,2.60209273 L16.690596,2.60209273 L13.835649,5.45703971 C12.803165,4.47232184 11.4252948,3.93587105 9.99965846,3.95791698 C7.39089095,3.95791698 5.17527573,5.71791646 4.38529684,8.08785315 C3.96642431,9.32977345 3.96642431,10.6745747 4.38529684,11.916495 L4.38529684,11.916495 C5.18262437,14.2827574 7.39456528,16.0427569 10.0033328,16.0427569 C11.3518084,16.0427569 12.5092193,15.6973708 13.4057535,15.0874336 L13.402,15.089 C14.3863072,14.4358541 15.0792677,13.4353938 15.3495169,12.2951678 L15.4009095,12.0487706 L9.99965846,12.0487706 L9.99965846,8.19808276 L19.431639,8.19808276 C19.5492173,8.86680908 19.6043321,9.55023268 19.6043321,10.229982 C19.6043321,13.2723193 18.5167332,15.8443436 16.6244582,17.5859715 L16.626,17.583 C15.0430626,19.0480315 12.8932171,19.9217835 10.3490224,19.9949981 L9.99965846,20 C6.21878274,20 2.7612472,17.8688941 1.06371116,14.4921937 L1.06371116,14.4921937 L0.917178889,14.1875756 C-0.352767485,11.4295023 -0.303923393,8.23679435 1.06371116,5.51215452 L1.06371116,5.51215452 L1.20921578,5.23336735 C2.953582,2.01502932 6.32380706,0.000673865683 9.99965846,0.000673865683 Z" id="Combined-Shape" fill="#989DAE"></path>
                        </g>
                    </g>
                </g>
            </g>
        </g>
    </g>
</svg>