<?xml version="1.0" encoding="utf-8"?>
<!-- Generator: Adobe Illustrator 25.0.1, SVG Export Plug-In . SVG Version: 6.00 Build 0)  -->
<svg version="1.1" id="Ebene_1" xmlns="http://www.w3.org/2000/svg" xmlns:xlink="http://www.w3.org/1999/xlink" x="0px" y="0px"
	 viewBox="0 0 100 82" style="enable-background:new 0 0 100 82;" xml:space="preserve">
<style type="text/css">
	.st0{fill:#A6A6A6;}
</style>
<g>
	<g>
		<path class="st0" d="M39.8,47.3c3.5,0,6.4-2.8,6.4-6.4c0-3.5-6.4-12.3-6.4-12.3s-6.4,8.8-6.4,12.3C33.4,44.4,36.3,47.3,39.8,47.3z
			 M38.8,45c3.2,0,5.9-2.6,5.9-5.9c0-0.4,0-0.8-0.1-1.1c0.5,1.1,0.8,2.1,0.8,2.8c0,3.1-2.5,5.6-5.6,5.6c-2.2,0-4.2-1.3-5.1-3.2
			C35.7,44.3,37.2,45,38.8,45z"/>
		<rect x="53.4" y="10.1" transform="matrix(0.8199 -0.5725 0.5725 0.8199 2.7828 34.0471)" class="st0" width="4.2" height="4.9"/>
		<path class="st0" d="M42.5,17.5c0.4-2.8,2.7-5,4.1-6.1l0.1,0.2c0.7,1,2.2,1.3,3.2,0.6l7-4.9c1-0.7,1.3-2.2,0.6-3.2l-2.1-3
			c-0.7-1-2.2-1.3-3.2-0.6l-7,4.9c-1,0.7-1.3,2.2-0.6,3.2l0.1,0.2c-5.1,3.7-5.6,8.2-5.2,9.2C40,18.9,42.3,19,42.5,17.5z"/>
		<path class="st0" d="M53.3,21.2l4.8,6.9l10.8-7.5l-4.8-6.9c-0.7-1-2.2-1.3-3.2-0.6l-7,4.9C52.9,18.8,52.6,20.2,53.3,21.2z"/>
		<path class="st0" d="M82.3,37.4c-0.3-0.4-0.8-0.5-1.1-0.2l-3.7,2.6l-2.6-3.7c-0.3-0.4-0.8-0.5-1.1-0.2l-2.7,1.9
			c-0.4,0.3-0.5,0.8-0.2,1.1l2.6,3.7l-3.7,2.6c-0.4,0.3-0.5,0.8-0.2,1.1l1.9,2.7c0.3,0.4,0.8,0.5,1.1,0.2l3.7-2.6l2.6,3.7
			c0.3,0.4,0.8,0.5,1.1,0.2l2.7-1.9c0.4-0.3,0.5-0.8,0.2-1.1l-2.6-3.7l3.7-2.6c0.4-0.3,0.5-0.8,0.2-1.1L82.3,37.4z"/>
		<path class="st0" d="M98.8,46.5l-17.4-25c-2.1-3.1-6.4-3.8-9.4-1.7l-2.4,1.7L58.8,29l-2.2,1.6c-3.1,2.1-3.8,6.4-1.7,9.4l17.4,25
			c2.1,3.1,6.4,3.8,9.4,1.7l15.4-10.8C100.2,53.8,100.9,49.5,98.8,46.5z M89.8,47.2l-13.7,9.5c-1,0.7-2.5,0.5-3.2-0.6l-9.5-13.7
			c-0.7-1-0.5-2.5,0.6-3.2l13.7-9.5c1-0.7,2.5-0.5,3.2,0.6L90.4,44C91.1,45,90.8,46.4,89.8,47.2z"/>
		<path class="st0" d="M61.6,67l-1.5,0.5L42.9,73c0,0,0,0-0.1,0l-0.1,0l0,0c-0.4,0.1-0.7,0.2-1.1,0.2l0,0c-0.2,0-0.4,0-0.6,0
			l-7.4-1.2l0-0.3l7.5,0.8c1.7,0.3,3.3-0.9,3.6-2.6c0.3-1.7-0.9-3.3-2.6-3.6L24,62.1c-0.1,0-0.3-0.1-0.5-0.1c-0.2,0-0.4,0-0.6-0.1v0
			c0,0-2.4-0.2-7.3,0.7C10.8,63.6,3.8,64.1,0,64.2V79c0,0,17.3-4.1,18.6-3.9c1.3,0.2,19.2,9.1,25,6.4v0c0.3-0.1,0.5-0.1,0.8-0.2
			c0.1-0.1,0.3-0.1,0.4-0.2l19.3-9.5c1.6-0.7,2.3-2.3,1.6-3.8C65,66.1,63.1,66.3,61.6,67z"/>
	</g>
</g>
</svg>
