<?xml version="1.0" encoding="UTF-8"?>
<svg width="98px" height="24px" viewBox="0 0 98 24" version="1.1" xmlns="http://www.w3.org/2000/svg" xmlns:xlink="http://www.w3.org/1999/xlink">
    <!-- Generator: Sketch 63.1 (92452) - https://sketch.com -->
    <title>mobile.de-logo</title>
    <desc>Created with Sketch.</desc>
    <g id="Views" stroke="none" stroke-width="1" fill="none" fill-rule="evenodd">
        <g id="00.00-Homepage" transform="translate(-752.000000, -5049.000000)" fill-rule="nonzero">
            <g id="bottom" transform="translate(0.000000, 4498.000000)">
                <g id="rates" transform="translate(108.000000, 551.000000)">
                    <g id="mobilede" transform="translate(644.000000, 0.000000)">
                        <g id="mobile.de-logo">
                            <g id="a-link" transform="translate(49.000000, 12.000000) scale(-1, 1) rotate(-180.000000) translate(-49.000000, -12.000000) ">
                                <g id="a">
                                    <path d="M96.2807018,4.71428571 C96.2759799,3.05938556 94.9316689,1.71899385 93.2719298,1.71428571 L4.72807018,1.71428571 C3.06833113,1.71899385 1.72402015,3.05938556 1.71929825,4.71428571 L1.71929825,19.2857143 C1.72402015,20.9406144 3.06833113,22.2810061 4.72807018,22.2857143 L93.2719298,22.2857143 C94.9316689,22.2810061 96.2759799,20.9406144 96.2807018,19.2857143 L96.2807018,4.71428571 Z" id="Path" fill="#FFFFFF"></path>
                                    <path d="M93.2719298,22.2857143 C94.9316689,22.2810061 96.2759799,20.9406144 96.2807018,19.2857143 L96.2807018,4.71428571 C96.2759799,3.05938556 94.9316689,1.71899385 93.2719298,1.71428571 L4.72807018,1.71428571 C3.06833113,1.71899385 1.72402015,3.05938556 1.71929825,4.71428571 L1.71929825,19.2857143 C1.72402015,20.9406144 3.06833113,22.2810061 4.72807018,22.2857143 L93.2719298,22.2857143 M93.2719298,24 L4.72807018,24 C2.11800751,23.9971656 0.00284269194,21.8881674 0,19.2857143 L0,4.71428571 C0,2.11457143 2.12075439,0 4.72807018,0 L93.2719298,0 C95.8792456,0 98,2.11457143 98,4.71428571 L98,19.2857143 C98,21.8854286 95.8792456,24 93.2719298,24 Z" id="Shape" fill="#000000"></path>
                                    <polygon id="Path" fill="#FF6600" points="69.6315789 8.57142857 73.0701754 8.57142857 73.0701754 5.14285714 69.6315789 5.14285714"></polygon>
                                    <path d="M14.6140351,15.9522857 L17.2247895,15.9522857 L17.2247895,14.8757143 L17.265193,14.8757143 C17.9589298,15.8365714 18.8091228,16.2274286 19.9567544,16.2274286 C21.202386,16.2274286 22.1144737,15.6197143 22.4110526,14.5422857 L22.4514561,14.5422857 C22.865807,15.6591429 23.8569825,16.2274286 25.1412982,16.2274286 C26.9448421,16.2274286 27.7941754,15.1114286 27.7941754,13.074 L27.7941754,5.418 L25.0622105,5.418 L25.0622105,12.7808571 C25.0622105,13.6602857 24.7664912,14.1505714 23.9945263,14.1505714 C23.1245614,14.1505714 22.5709474,13.5625714 22.5709474,12.3505714 L22.5709474,5.418 L19.8372632,5.418 L19.8372632,12.7808571 C19.8372632,13.6602857 19.5398246,14.1505714 18.7695789,14.1505714 C17.8978947,14.1505714 17.3442807,13.5625714 17.3442807,12.3505714 L17.3442807,5.418 L14.6140351,5.418 L14.6140351,15.9522857 Z M29.5358246,10.686 C29.5358246,7.02514286 30.4470526,5.08628571 33.7326316,5.14457143 C36.8591754,5.14457143 37.9285789,7.08342857 37.9285789,10.686 C37.9285789,14.3468571 37.0182105,16.2857143 33.7326316,16.2282857 C30.6052281,16.2282857 29.5358246,14.2894286 29.5358246,10.686 M32.2686491,10.686 C32.2686491,12.84 32.3864211,14.3862857 33.7326316,14.3862857 C34.8424386,14.3862857 35.196614,13.3088571 35.196614,10.686 C35.196614,8.06314286 34.8424386,6.98571429 33.7326316,6.98571429 C32.3864211,6.98571429 32.2686491,8.53285714 32.2686491,10.686 M39.6814035,5.41885714 L42.2955965,5.41885714 L42.2955965,6.53571429 L42.3342807,6.53571429 C42.9282982,5.55514286 43.6804912,5.14457143 44.7490351,5.14457143 C46.9858421,5.14457143 48.0165614,6.76885714 48.0165614,10.686 C48.0165614,14.6031429 46.9858421,16.2282857 44.7490351,16.2282857 C43.7200351,16.2282857 43.0280175,15.8177143 42.4537719,14.9751429 L42.4142281,14.9751429 L42.4142281,19.3997143 L39.6814035,19.3997143 L39.6814035,5.41885714 Z M42.4142281,10.686 C42.4142281,12.9762857 42.6506316,14.1514286 43.8592982,14.1514286 C45.048193,14.1514286 45.2845965,12.9762857 45.2845965,10.686 C45.2845965,8.39571429 45.048193,7.22057143 43.8592982,7.22057143 C42.6506316,7.22057143 42.4142281,8.39571429 42.4142281,10.686 M50.0547895,19.5548571 L52.7850351,19.5548571 L52.7850351,17.2448571 L50.0547895,17.2448571 L50.0547895,19.5548571 Z M50.0547895,15.9522857 L52.7850351,15.9522857 L52.7850351,5.41885714 L50.0547895,5.41885714 L50.0547895,15.9522857 Z M55.2307368,19.4014286 L57.9627018,19.4014286 L57.9627018,5.42142857 L55.2307368,5.42142857 L55.2307368,19.4014286 Z M67.896807,10.3277143 L67.896807,10.9362857 C67.896807,14.1668571 67.1850175,16.2805714 63.9982982,16.2805714 C60.3181404,16.2805714 59.7645263,13.6568571 59.7645263,10.836 C59.7645263,8.21314286 59.9218421,5.19771429 63.8805263,5.19771429 C66.4543158,5.19771429 67.6414912,6.56742857 67.7403509,9.01628571 L65.2860526,9.01628571 C65.1261579,7.722 64.7522105,7.038 63.8418421,7.038 C62.8308947,7.038 62.4956316,8.25257143 62.4956316,9.48514286 L62.4956316,10.326 L67.896807,10.326 L67.896807,10.3277143 Z M62.4956316,11.9331429 L62.4956316,12.3445714 C62.4956316,13.3242857 62.8111228,14.4402857 63.8994386,14.4402857 C65.0290175,14.4402857 65.2258772,13.5377143 65.2860526,11.9322857 L62.4956316,11.9322857 L62.4956316,11.9331429 Z M80.5431053,5.41885714 L83.1572982,5.41885714 L83.1572982,19.3997143 L80.423614,19.3997143 L80.423614,14.9751429 L80.3857895,14.9751429 C79.8115439,15.8168571 79.117807,16.2282857 78.0896667,16.2282857 C75.8537193,16.2282857 74.823,14.6031429 74.823,10.686 C74.823,6.76885714 75.8537193,5.14457143 78.0896667,5.14457143 C79.1582105,5.14457143 79.9104035,5.55514286 80.5035614,6.53571429 L80.5439649,6.53571429 L80.5439649,5.41885714 L80.5431053,5.41885714 Z M77.5549649,10.686 C77.5549649,12.9762857 77.7913684,14.1514286 78.9785439,14.1514286 C80.1854912,14.1514286 80.4244737,12.9762857 80.4244737,10.686 C80.4244737,8.39571429 80.1863509,7.22057143 78.9785439,7.22057143 C77.7913684,7.22057143 77.5549649,8.39571429 77.5549649,10.686 M93.0957018,10.2737143 L93.0957018,10.8814286 C93.0957018,14.112 92.3839123,16.2282857 89.197193,16.2282857 C85.5153158,16.2282857 84.9608421,13.6037143 84.9608421,10.7837143 C84.9608421,8.15914286 85.1207368,5.14371429 89.0777018,5.14371429 C91.6497719,5.14371429 92.8386667,6.51514286 92.9375263,8.96228571 L90.4823684,8.96228571 C90.3250526,7.66971429 89.9476667,6.98485714 89.0390175,6.98485714 C88.0280702,6.98485714 87.6910877,8.19857143 87.6910877,9.43114286 L87.6910877,10.2728571 L93.0957018,10.2728571 L93.0957018,10.2737143 Z M87.6910877,11.8808571 L87.6910877,12.2922857 C87.6910877,13.2702857 88.0082982,14.3854286 89.0983333,14.3854286 C90.226193,14.3854286 90.4230526,13.4854286 90.4823684,11.88 L87.6910877,11.88 L87.6910877,11.8808571 Z" id="Shape" fill="#000000"></path>
                                    <path d="M4.81489474,1.7142856 C3.99382159,1.71405827 3.20631197,2.03917665 2.62572556,2.61807038 C2.04513915,3.19696412 1.71907014,3.9821778 1.71929813,4.80085714 L1.71929813,19.1991429 C1.71907014,20.0178222 2.04513915,20.8030359 2.62572556,21.3819296 C3.20631197,21.9608234 3.99382159,22.2859417 4.81489474,22.2857144 L12.0350877,22.2857144 L12.0350877,1.7142856 L4.81489474,1.7142856 Z" id="Path" fill="#FF6600"></path>
                                </g>
                            </g>
                        </g>
                    </g>
                </g>
            </g>
        </g>
    </g>
</svg>