<?xml version="1.0" encoding="utf-8"?>
<!-- Generator: Adobe Illustrator 25.0.0, SVG Export Plug-In . SVG Version: 6.00 Build 0)  -->
<svg version="1.1" id="Ebene_1" xmlns="http://www.w3.org/2000/svg" xmlns:xlink="http://www.w3.org/1999/xlink" x="0px" y="0px"
	 viewBox="0 0 90 38.8" style="enable-background:new 0 0 90 38.8;" xml:space="preserve">
<style type="text/css">
	.st0{fill-rule:evenodd;clip-rule:evenodd;fill:#A6A6A6;}
</style>
<path class="st0" d="M24.5,34l-1.6-3.3v-3.3l1.6-1.6v-1.6l1.6-1.6h11.5h19.6l-1.6-3.3L50.7,16l-6.5-1.6h-4.9L37.7,16L36,20.9h-9.8
	l1.6-4.9l1.6-1.6l3.3-1.6h11.5l6.5,1.6l8.2,4.9l6.5,6.5l1.6,1.6h-1.6V29l1.6,1.6v3.3l-1.6,1.6h-0.3c0.1-0.5,0.2-1.1,0.2-1.6
	c0-3.6-2.9-6.5-6.5-6.5s-6.5,2.9-6.5,6.5c0,0.6,0.1,1.1,0.2,1.6h-14c0.1-0.5,0.2-1.1,0.2-1.6c0-3.6-2.9-6.5-6.5-6.5
	s-6.5,2.9-6.5,6.5c0,0.3,0,0.6,0.1,0.9L24.5,34L24.5,34z M58.9,29.1c2.7,0,4.9,2.2,4.9,4.9c0,1.2-0.5,2.4-1.2,3.2h2.9v1.6h-6.6H32.3
	h-7.8v-1.6h4.1c-0.8-0.9-1.2-2-1.2-3.2c0-2.7,2.2-4.9,4.9-4.9s4.9,2.2,4.9,4.9c0,1.2-0.5,2.4-1.2,3.2h19.3c-0.8-0.9-1.2-2-1.2-3.2
	C54,31.3,56.2,29.1,58.9,29.1L58.9,29.1z M60.5,34L60.5,34c0,0.9-0.7,1.6-1.6,1.6s-1.6-0.7-1.6-1.6l0,0H60.5L60.5,34z M58.9,30.8
	c1.8,0,3.2,1.5,3.2,3.2c0,1.8-1.4,3.2-3.2,3.2l0,0c-1.8,0-3.2-1.5-3.2-3.2C55.6,32.2,57.1,30.8,58.9,30.8L58.9,30.8z M33.9,34
	L33.9,34c0,0.9-0.7,1.6-1.6,1.6c-0.9,0-1.6-0.7-1.6-1.6l0,0H33.9L33.9,34z M32.3,30.8c1.8,0,3.2,1.5,3.2,3.2c0,1.8-1.4,3.2-3.2,3.2
	l0,0c-1.8,0-3.2-1.5-3.2-3.2C29.1,32.2,30.5,30.8,32.3,30.8L32.3,30.8z M24.8,30.8c1.2-2.9,4.1-5,7.5-5c4.5,0,8.1,3.6,8.2,8.1h10.3
	c0-4.5,3.7-8.1,8.2-8.1c1.9,0,3.6,0.6,4.9,1.7v-1L58.4,21l1.6,3.2H26.9l-0.7,0.7v1.6l-1.6,1.6v2.2L24.8,30.8L24.8,30.8z M37,14.3
	h-3.8l-2.7,1.3l-1.2,1.2l-0.8,2.4h6.4l1.4-4.2L37,14.3L37,14.3z"/>
</svg>
