<?xml version="1.0" encoding="utf-8"?>
<!-- Generator: Adobe Illustrator 25.0.0, SVG Export Plug-In . SVG Version: 6.00 Build 0)  -->
<svg version="1.1" id="Ebene_1" xmlns="http://www.w3.org/2000/svg" xmlns:xlink="http://www.w3.org/1999/xlink" x="0px" y="0px"
	 viewBox="0 0 90 38.8" style="enable-background:new 0 0 90 38.8;" xml:space="preserve">
<style type="text/css">
	.st0{fill-rule:evenodd;clip-rule:evenodd;fill:#A6A6A6;}
</style>
<path class="st0" d="M9,33.9l-1.6-3.3V29l3.3-3.3l0,0L9,27.3L7.4,24l3.3-4.9H14l11.5-4.9l6.5-1.6h13l6.5,1.6l9.8,4.9h-4.9l-4.9-3.3
	L45,14.2H33.5l-8.2,4.9l1.6,1.6h3.3l1.6-3.3v3.3H40v-4.9h1.6v4.9H63L79.4,24l3.3,1.6L81,27.3l1.6,1.6v3.3l-3.3,3.3h-5
	c0.3-0.7,0.4-1.5,0.4-2.3c0-4-3.3-7.3-7.3-7.3s-7.3,3.2-7.3,7.3c0,0.8,0.1,1.6,0.4,2.3H29c0.3-0.7,0.4-1.5,0.4-2.3
	c0-4-3.3-7.3-7.3-7.3s-7.3,3.2-7.3,7.3c0,0.8,0.1,1.6,0.4,2.3h-3L9,33.9L9,33.9z M67.5,27.5c3.1,0,5.6,2.5,5.6,5.6
	c0,1.6-0.6,3-1.7,4h7.9v1.6H9v-1.6h9.2c-1-1-1.7-2.4-1.7-4c0-3.1,2.5-5.6,5.6-5.6s5.6,2.5,5.6,5.6c0,1.6-0.6,3-1.7,4h37.4
	c-1-1-1.7-2.4-1.7-4C61.9,30.1,64.4,27.5,67.5,27.5L67.5,27.5z M69.8,33.2c0,1.3-1,2.3-2.3,2.3s-2.3-1-2.3-2.3h1.6
	c0,0.4,0.3,0.7,0.7,0.7c0.4,0,0.7-0.3,0.7-0.7H69.8L69.8,33.2z M67.5,29.2c2.2,0,4,1.8,4,4s-1.8,4-4,4s-4-1.8-4-4
	S65.3,29.2,67.5,29.2L67.5,29.2z M24.5,33.2c0,1.3-1,2.3-2.3,2.3s-2.3-1-2.3-2.3h1.6c0,0.4,0.3,0.7,0.7,0.7c0.4,0,0.7-0.3,0.7-0.7
	H24.5L24.5,33.2z M22.1,29.2c2.2,0,4,1.8,4,4s-1.8,4-4,4s-4-1.8-4-4C18.2,31,19.9,29.2,22.1,29.2L22.1,29.2z M10.2,32.6l2.4,1.2h0.6
	c0-0.2,0-0.5,0-0.7c0-4.9,4-8.9,8.9-8.9s8.9,4,8.9,8.9c0,0.2,0,0.5,0,0.7h27.6c0-0.2,0-0.5,0-0.7c0-4.9,4-8.9,8.9-8.9s8.9,4,8.9,8.9
	c0,0.2,0,0.5,0,0.7h2.3l2.3-2.3v-1.9l-2.3-2.3l1.2-1.2l-1-0.5l-16-3.2H26.3l-3.6-3.6l6.4-3.8l-3.2,0.8l-11.6,5h-2.7l-2.3,3.4
	l0.2,0.4l1.2-1.2l2.3,2.3l-4,4v0.6L10.2,32.6L10.2,32.6z"/>
</svg>
