<?xml version="1.0" encoding="utf-8"?>
<!-- Generator: Adobe Illustrator 25.0.0, SVG Export Plug-In . SVG Version: 6.00 Build 0)  -->
<svg version="1.1" id="Ebene_1" xmlns="http://www.w3.org/2000/svg" xmlns:xlink="http://www.w3.org/1999/xlink" x="0px" y="0px"
	 viewBox="0 0 90 38.8" style="enable-background:new 0 0 90 38.8;" xml:space="preserve">
<style type="text/css">
	.st0{fill-rule:evenodd;clip-rule:evenodd;fill:#A6A6A6;}
</style>
<path class="st0" d="M9.8,33l-1.6-3.3l1.6-1.6l-1.6-3.3h3.3l-1.6-1.6l3.3-3.3h8.2l-1.6-1.6h6.5l1.6-1.6h1.6v1.6h1.6l6.5,1.6h1.6
	v-1.6h1.6l1.6,1.6h9.8L47.5,15h3.3l6.5,3.3l1.6,1.6h1.6l14.7,3.3l4.9,1.6l-1.6,1.6l3.3,1.6v3.3L80.2,33v1.6H75
	c0.1-0.5,0.2-1,0.2-1.5c0-4-3.3-7.3-7.3-7.3s-7.3,3.2-7.3,7.3c0,0.5,0.1,1,0.2,1.5H30.1c0.1-0.5,0.2-1,0.2-1.5c0-4-3.3-7.3-7.3-7.3
	s-7.3,3.2-7.3,7.3c0,0.5,0.1,1,0.2,1.5h-1.2L9.8,33L9.8,33z M67.9,27.5c3.1,0,5.6,2.5,5.6,5.6c0,1.6-0.6,3-1.7,4h6.7v1.6H9.8v-1.6
	H19c-1-1-1.7-2.4-1.7-4c0-3.1,2.5-5.6,5.6-5.6s5.6,2.5,5.6,5.6c0,1.6-0.6,3-1.7,4h37c-1-1-1.7-2.4-1.7-4
	C62.3,30.1,64.8,27.5,67.9,27.5L67.9,27.5z M70.2,33.2c0,1.3-1,2.3-2.3,2.3s-2.3-1-2.3-2.3h1.6c0,0.4,0.3,0.7,0.7,0.7
	c0.4,0,0.7-0.3,0.7-0.7H70.2L70.2,33.2z M67.9,29.2c2.2,0,4,1.8,4,4s-1.8,4-4,4s-4-1.8-4-4S65.7,29.2,67.9,29.2L67.9,29.2z
	 M25.3,33.2c0,1.3-1,2.3-2.3,2.3s-2.3-1-2.3-2.3h1.6c0,0.4,0.3,0.7,0.7,0.7c0.4,0,0.7-0.3,0.7-0.7H25.3L25.3,33.2z M23,29.2
	c2.2,0,4,1.8,4,4s-1.8,4-4,4s-4-1.8-4-4S20.8,29.2,23,29.2L23,29.2z M11,31.7l3.1,1c0.2-4.7,4.1-8.5,8.9-8.5c4.9,0,8.8,3.9,8.9,8.7
	H59c0.1-4.8,4-8.7,8.9-8.7s8.8,3.9,8.9,8.7h1.8v-0.7l1.6-1.6V29l-4.4-2.2l1.4-1.4l-2.3-0.8l-14.5-3.2h-2.1l-1.9-1.9l-3.8-1.9
	l3.8,3.8H41.9l-1-1v1h-3.5l-6.5-1.6h-3.1v-1l-1,1h-3.3l1.6,1.6H13.8L12.2,23l3.3,3.3h-4.6l1,2l-1.6,1.6L11,31.7L11,31.7z"/>
</svg>
