<?xml version="1.0" encoding="utf-8"?>
<!-- Generator: Adobe Illustrator 25.0.0, SVG Export Plug-In . SVG Version: 6.00 Build 0)  -->
<svg version="1.1" id="Ebene_1" xmlns="http://www.w3.org/2000/svg" xmlns:xlink="http://www.w3.org/1999/xlink" x="0px" y="0px"
	 viewBox="0 0 90 38.8" style="enable-background:new 0 0 90 38.8;" xml:space="preserve">
<style type="text/css">
	.st0{fill-rule:evenodd;clip-rule:evenodd;fill:#A6A6A6;}
</style>
<path class="st0" d="M6.5,16.9l8.2-1.6H8.2l6.5-6.5h-3.3V7h40.9L54,8.7h-1.6l9.8,6.5h-3.3l-8.2-6.5H26.2l-3.3,6.5l14.7,1.6v-6.5h1.6
	v6.5h40.9l3.3,3.3l-3.3,1.6l1.6,1.6H85v1.6v1.6l0,0v4.9l-4.9,3.3h-0.6c0.4-1,0.6-2,0.6-3.1c0-4.8-3.9-8.6-8.6-8.6
	c-4.8,0-8.6,3.9-8.6,8.6c0,1.1,0.2,2.2,0.6,3.1H30.7c0.4-1,0.6-2,0.6-3.1c0-4.8-3.9-8.6-8.6-8.6c-4.8,0-8.6,3.9-8.6,8.6
	c0,1.1,0.2,2.2,0.6,3.1h-1.5L5,29.8v-3.3h3.3l-1.6-1.6v-8H6.5z M67.8,31.7c0,2.1,1.7,3.7,3.7,3.7c2.1,0,3.7-1.7,3.7-3.7h-1.6
	c0,1.1-0.9,2.1-2.1,2.1c-1.1,0-2.1-0.9-2.1-2.1L67.8,31.7L67.8,31.7z M71.5,24.8c3.9,0,7,3.1,7,7c0,2.1-1,4.1-2.5,5.4h5.8v1.6H71.5
	H22.7H6.5v-1.6h11.6c-1.5-1.3-2.5-3.2-2.5-5.4c0-3.9,3.1-7,7-7s7,3.1,7,7c0,2.1-1,4.1-2.5,5.4H67c-1.5-1.3-2.5-3.2-2.5-5.4
	C64.5,27.9,67.6,24.8,71.5,24.8L71.5,24.8z M71.5,26.4c-3,0-5.4,2.4-5.4,5.3c0,3,2.4,5.4,5.4,5.4s5.3-2.4,5.3-5.4
	C76.8,28.8,74.5,26.4,71.5,26.4L71.5,26.4z M19,31.7c0,2.1,1.7,3.7,3.7,3.7c2.1,0,3.7-1.7,3.7-3.7h-1.6c0,1.1-0.9,2.1-2.1,2.1
	c-1.1,0-2.1-0.9-2.1-2.1L19,31.7L19,31.7z M22.7,26.4c-3,0-5.3,2.4-5.3,5.3c0,3,2.4,5.4,5.3,5.4c3,0,5.4-2.4,5.4-5.4
	C28,28.8,25.6,26.4,22.7,26.4L22.7,26.4z M8.2,18.2v6.2l4,4H6.5v0.7l5.9,3.5c0-0.3,0-0.5,0-0.8c0-5.7,4.6-10.3,10.3-10.3
	S33,26.1,33,31.8c0,0.5,0,1-0.1,1.5h28.5c-0.1-0.5-0.1-1-0.1-1.5c0-5.7,4.6-10.3,10.3-10.3c5.7,0,10.3,4.6,10.3,10.3v0.1l1.7-1.1
	v-5.7h-2.3l-3.7-3.7l3.3-1.6l-1.4-1.3H39.3h-1.7l-17.1-1.9l4-7.9H17l-4.9,4.9h4.1l0.3,3L8.2,18.2L8.2,18.2z"/>
</svg>
