<?xml version="1.0" encoding="utf-8"?>
<!-- Generator: Adobe Illustrator 25.0.0, SVG Export Plug-In . SVG Version: 6.00 Build 0)  -->
<svg version="1.1" id="Ebene_1" xmlns="http://www.w3.org/2000/svg" xmlns:xlink="http://www.w3.org/1999/xlink" x="0px" y="0px"
	 viewBox="0 0 90 38.8" style="enable-background:new 0 0 90 38.8;" xml:space="preserve">
<style type="text/css">
	.st0{fill-rule:evenodd;clip-rule:evenodd;fill:#A6A6A6;}
</style>
<path class="st0" d="M9.8,33.9L8.2,29v-1.6l1.6-1.6v-3.3h1.6l1.6-1.6H9.8l3.3-4.9l4.9-1.6h29.5l13.1,6.5h-3.3L47.5,16H24.6l-3.3,3.3
	l4.9,3.3l1.6-4.9h1.6l-1.6,4.9h11.5l-1.6-4.9h1.6l1.6,4.9h29.5l6.5,1.6l3.3,1.6l-1.7,1.6h3.3v3.3l-1.6,1.6v1.6l-1.6,1.6h-6
	c0.3-0.7,0.4-1.5,0.4-2.3c0-4-3.3-7.3-7.3-7.3s-7.3,3.2-7.3,7.3c0,0.8,0.1,1.6,0.4,2.3H28.7c0.3-0.7,0.4-1.5,0.4-2.3
	c0-4-3.3-7.3-7.3-7.3s-7.3,3.2-7.3,7.3c0,0.8,0.1,1.6,0.4,2.3H13L9.8,33.9L9.8,33.9z M65.7,27.5c3.1,0,5.6,2.5,5.6,5.6
	c0,1.6-0.6,3-1.7,4h8.9v1.6H9.8v-1.6h8c-1-1-1.7-2.4-1.7-4c0-3.1,2.5-5.6,5.6-5.6s5.6,2.5,5.6,5.6c0,1.6-0.6,3-1.7,4h35.9
	c-1-1-1.7-2.4-1.7-4C60.1,30.1,62.6,27.5,65.7,27.5L65.7,27.5z M68,33.2c0,1.3-1,2.3-2.3,2.3s-2.3-1-2.3-2.3H65
	c0,0.4,0.3,0.7,0.7,0.7s0.7-0.3,0.7-0.7H68L68,33.2z M65.7,29.2c2.2,0,4,1.8,4,4s-1.8,4-4,4c-2.2,0-4-1.8-4-4
	C61.7,31,63.5,29.2,65.7,29.2L65.7,29.2z M24.2,33.2c0,1.3-1,2.3-2.3,2.3s-2.3-1-2.3-2.3h1.6c0,0.4,0.3,0.7,0.7,0.7
	c0.4,0,0.7-0.3,0.7-0.7H24.2L24.2,33.2z M21.8,29.2c2.2,0,4,1.8,4,4s-1.8,4-4,4s-4-1.8-4-4C17.9,31,19.6,29.2,21.8,29.2L21.8,29.2z
	 M11.2,32.7l1.8,0.9c0-0.1,0-0.3,0-0.4c0-4.9,4-8.9,8.9-8.9s8.9,4,8.9,8.9c0,0.2,0,0.5,0,0.7h26.1c0-0.2,0-0.5,0-0.7
	c0-4.9,4-8.9,8.9-8.9s8.9,4,8.9,8.9c0,0.2,0,0.5,0,0.7H78l0.7-0.7v-1.6l1.6-1.6v-1h-5.6l2.9-2.8l-1.1-0.5l-6.2-1.5H25.7l-7-4.7
	l3.5-3.5h-4l-4.1,1.4l-1.3,1.9H17l-4.9,4.9h-0.7v2.3L9.8,28v0.7L11.2,32.7L11.2,32.7z"/>
</svg>
