<?xml version="1.0" encoding="utf-8"?>
<!-- Generator: Adobe Illustrator 25.0.0, SVG Export Plug-In . SVG Version: 6.00 Build 0)  -->
<svg version="1.1" id="Ebene_1" xmlns="http://www.w3.org/2000/svg" xmlns:xlink="http://www.w3.org/1999/xlink" x="0px" y="0px"
	 viewBox="0 0 90 38.8" style="enable-background:new 0 0 90 38.8;" xml:space="preserve">
<style type="text/css">
	.st0{fill:#A6A6A6;}
</style>
<g>
	<path class="st0" d="M33.6,33.9c-0.5,0-1-0.4-1-1H31c0,1.5,1.2,2.6,2.6,2.6c1.5,0,2.6-1.2,2.6-2.6h-1.6
		C34.6,33.4,34.1,33.9,33.6,33.9z"/>
	<path class="st0" d="M76.1,32.9c0-3.3-2.6-5.9-5.9-5.9s-5.9,2.6-5.9,5.9c0,1.7,0.7,3.2,1.8,4.3H37.6c1.1-1.1,1.8-2.6,1.8-4.3
		c0-3.3-2.6-5.9-5.9-5.9c-3.3,0-5.9,2.6-5.9,5.9c0,1.7,0.7,3.2,1.8,4.3H7.8v1.6h25.8h36.6h10.6v-1.6h-6.5
		C75.4,36.1,76.1,34.5,76.1,32.9z M33.6,37.1c-2.4,0-4.3-1.9-4.3-4.3s1.9-4.3,4.3-4.3s4.3,1.9,4.3,4.3
		C37.8,35.2,35.9,37.1,33.6,37.1z M70.1,37.1c-2.4,0-4.3-1.9-4.3-4.3s1.9-4.3,4.3-4.3s4.3,1.9,4.3,4.3S72.5,37.1,70.1,37.1z"/>
	<path class="st0" d="M82.4,27.3l-1.6-1.6h1.6l-1.6-1.6l-11.5-3.3l-13.8-7.6l-6.2-0.6H36.1l-6.5,3.3h3.3h6.5l3.3-1.6h6.8l6.2,0.6
		l9.4,5.5l-2.2,2.1H51.6l-14-4.9h-13l-3.3,6.5H23l-1.6,1.6v4.9l1.1,1.1h-8.7V29c3.2-0.5,5.7-3.3,5.7-6.7V19h-3.3v-3.2h-2V19h-2.9
		v-3.2h-2V19H6v3.3c0,3.4,2.5,6.2,5.7,6.7v4.7h12.7l1.7,1.7h0.3c-0.3-0.8-0.5-1.7-0.5-2.6c0-4.2,3.4-7.5,7.5-7.5
		c4.2,0,7.5,3.4,7.5,7.5c0,0.9-0.2,1.8-0.5,2.6h22.4c-0.3-0.8-0.5-1.7-0.5-2.6c0-4.2,3.4-7.5,7.5-7.5c4.2,0,7.5,3.4,7.5,7.5
		c0,0.9-0.2,1.8-0.5,2.6H77l4.9-1.6l1.6-3.3v-3.2C83.5,27.3,82.4,27.3,82.4,27.3z M8,22.3V21h9.5v1.3c0,2.6-2.1,4.7-4.7,4.7
		S8,24.9,8,22.3z M82.4,30.2l-1.2,2.3l-1.9,0.6c0-0.1,0-0.2,0-0.3c0-5.1-4.1-9.2-9.2-9.2s-9.2,4.1-9.2,9.2c0,0.3,0,0.7,0.1,1H42.7
		c0-0.3,0.1-0.7,0.1-1c0-5.1-4.1-9.2-9.2-9.2c-4.6,0-8.4,3.4-9.1,7.8L23,29.9v-3.6l4-4h-3l1.6-3.3h11.9l14,4.9h12l2.8-2.8l2.5,1.1
		l8.9,2.5l4.1,4.1h0.7L82.4,30.2L82.4,30.2z"/>
	<path class="st0" d="M70.1,33.9c-0.5,0-1-0.4-1-1h-1.6c0,1.5,1.2,2.6,2.6,2.6c1.5,0,2.6-1.2,2.6-2.6h-1.6
		C71.1,33.4,70.7,33.9,70.1,33.9z"/>
</g>
</svg>
