<?xml version="1.0" encoding="utf-8"?>
<!-- Generator: Adobe Illustrator 25.0.1, SVG Export Plug-In . SVG Version: 6.00 Build 0)  -->
<svg version="1.1" id="Ebene_1" xmlns="http://www.w3.org/2000/svg" xmlns:xlink="http://www.w3.org/1999/xlink" x="0px" y="0px"
	 viewBox="0 0 38 38" style="enable-background:new 0 0 38 38;" xml:space="preserve">
<style type="text/css">
	.st0{fill:#A6A6A6;}
</style>
<g>
	<rect x="27.7" y="20.7" class="st0" width="3" height="3"/>
	<path class="st0" d="M34.2,11.9h-3.4V7.5c0-1.5-1.2-2.8-2.8-2.8H3.8C2.3,4.8,1.1,6,1.1,7.5v2.1v1v19.9c0,1.5,1.2,2.8,2.8,2.8h30.3
		c1.5,0,2.8-1.2,2.8-2.8v-4.2v-8.3v-3.3C36.9,13.1,35.7,11.9,34.2,11.9z M2.6,7.5c0-0.7,0.6-1.3,1.3-1.3H28c0.7,0,1.3,0.6,1.3,1.3
		v4.3h-4.3H3.8c-0.7,0-1.3-0.6-1.3-1.3v-1V7.5z M35.4,24.8h-8.7c-0.7,0-1.3-0.6-1.3-1.3v-2.8c0-0.7,0.6-1.3,1.3-1.3h8.7V24.8z
		 M26.7,17.9c-1.5,0-2.8,1.2-2.8,2.8v2.8c0,1.5,1.2,2.8,2.8,2.8h8.7v4.2c0,0.7-0.6,1.3-1.3,1.3H3.8c-0.7,0-1.3-0.6-1.3-1.3V13
		c0.4,0.2,0.8,0.3,1.3,0.3h21.1h5.8h3.4c0.7,0,1.3,0.6,1.3,1.3v3.3H26.7z"/>
</g>
</svg>
