<?xml version="1.0" encoding="utf-8"?>
<!-- Generator: Adobe Illustrator 25.0.1, SVG Export Plug-In . SVG Version: 6.00 Build 0)  -->
<svg version="1.1" id="Ebene_1" xmlns="http://www.w3.org/2000/svg" xmlns:xlink="http://www.w3.org/1999/xlink" x="0px" y="0px"
	 viewBox="0 0 38 38" style="enable-background:new 0 0 38 38;" xml:space="preserve">
<style type="text/css">
	.st0{fill:#A6A6A6;}
</style>
<path class="st0" d="M37.2,20.4L19,2.3L0.8,20.4l1.1,1.1l4.3-4.3V33c0,1.5,1.2,2.8,2.8,2.8h6.3h8.1H29c1.5,0,2.8-1.2,2.8-2.8V17.2
	l4.3,4.3L37.2,20.4z M16.8,34.2v-8.8c0-0.7,0.6-1.3,1.3-1.3h2.6c0.7,0,1.3,0.6,1.3,1.3v8.8H16.8z M30.3,33c0,0.7-0.6,1.3-1.3,1.3
	h-5.7v-8.8c0-1.5-1.2-2.8-2.8-2.8H18c-1.5,0-2.8,1.2-2.8,2.8v8.8H9c-0.7,0-1.3-0.6-1.3-1.3V15.7L19,4.4l11.3,11.3V33z"/>
</svg>
