<?xml version="1.0" encoding="utf-8"?>
<!-- Generator: Adobe Illustrator 25.0.1, SVG Export Plug-In . SVG Version: 6.00 Build 0)  -->
<svg version="1.1" id="Ebene_1" xmlns="http://www.w3.org/2000/svg" xmlns:xlink="http://www.w3.org/1999/xlink" x="0px" y="0px"
	 viewBox="0 0 53.6 47.9" style="enable-background:new 0 0 53.6 47.9;" xml:space="preserve">
<style type="text/css">
	.st0{fill:#A6A6A6;}
</style>
<g>
	<path class="st0" d="M53.1,31.7c0-0.1,0-0.1-0.1-0.2c-0.1-0.2-0.1-0.3-0.2-0.4c0-0.1-0.1-0.1-0.1-0.2c-0.1-0.2-0.2-0.3-0.4-0.5
		c0,0-0.1-0.1-0.1-0.1c-0.1-0.1-0.3-0.2-0.4-0.3c0,0-0.1,0-0.1-0.1l0,0c-0.3-0.2-0.6-0.3-1-0.3l-4.2-7.2c-0.5-0.8-1.4-1.4-2.4-1.4
		h-5.5h-4.7h-2.5v-5.5l4.3,4.3l1.1-1.1L18.6,0.7L0.5,18.8l1.1,1.1l4.3-4.3v15.8c0,1.5,1.2,2.8,2.7,2.8h10.8v5.5c0,1.4,1,2.5,2.4,2.7
		v2.2c0,1.5,1.2,2.8,2.8,2.8h0.9c1.5,0,2.8-1.2,2.8-2.8v-2.1h16.3v2.1c0,1.5,1.2,2.8,2.8,2.8H48c1.5,0,2.8-1.2,2.8-2.8v-2.2
		c1.3-0.2,2.4-1.3,2.4-2.7v-7.3C53.1,32.1,53.1,31.9,53.1,31.7z M38.6,22.6h5.5c0.4,0,0.9,0.2,1.1,0.6l3.8,6.4H43h-0.4H29.9h-0.4
		h-5.9l3.8-6.4c0.2-0.4,0.6-0.6,1.1-0.6h5.5H38.6z M7.3,31.4V14.1L18.6,2.8l11.3,11.3v7h-1.5c-1,0-1.9,0.5-2.4,1.4l-3,5.2v-3.8
		c0-1.5-1.2-2.8-2.8-2.8h-2.6c-1.5,0-2.8,1.2-2.8,2.8v8.8H8.6C7.9,32.6,7.3,32.1,7.3,31.4z M16.4,32.6v-8.8c0-0.7,0.6-1.3,1.3-1.3
		h2.6c0.7,0,1.3,0.6,1.3,1.3v5.8c-0.2,0.1-0.5,0.1-0.7,0.3l0,0c0,0-0.1,0-0.1,0.1c-0.2,0.1-0.3,0.2-0.4,0.3c0,0-0.1,0.1-0.1,0.1
		c-0.2,0.1-0.3,0.3-0.4,0.5c0,0.1-0.1,0.1-0.1,0.2c-0.1,0.1-0.1,0.3-0.2,0.5c0,0.1,0,0.1-0.1,0.2c-0.1,0.2-0.1,0.4-0.1,0.7v0.3H16.4
		z M26.6,44.5c0,0.7-0.6,1.3-1.3,1.3h-0.9c-0.7,0-1.3-0.6-1.3-1.3v-2.1h3.4V44.5z M49.3,44.5c0,0.7-0.6,1.3-1.3,1.3h-0.9
		c-0.7,0-1.3-0.6-1.3-1.3v-2.1h3.4V44.5z M51.6,39.6c0,0.7-0.6,1.3-1.3,1.3h-6H28.1h-6c-0.7,0-1.3-0.6-1.3-1.3v-7.3
		c0-0.2,0-0.3,0.1-0.4c0,0,0-0.1,0-0.1c0.1-0.1,0.1-0.2,0.2-0.3c0,0,0,0,0,0c0.2-0.2,0.5-0.4,0.9-0.4h7.4h0.4h12.7H43h7.4
		c0.3,0,0.7,0.1,0.9,0.4c0,0,0,0,0,0c0.1,0.1,0.2,0.2,0.2,0.3c0,0,0,0.1,0,0.1c0.1,0.1,0.1,0.3,0.1,0.4V39.6z"/>
	<path class="st0" d="M46.4,33C46.4,33,46.3,33.1,46.4,33C46.3,33.1,46.3,33,46.4,33c-1.9,0-3.3,1.4-3.3,3.2c0,1.8,1.4,3.2,3.2,3.2
		c0,0,0,0,0,0c0,0,0,0,0,0c1.8,0,3.2-1.4,3.2-3.2C49.6,34.5,48.2,33,46.4,33z M44.7,36.3c0-0.9,0.8-1.7,1.7-1.7
		c0.9,0,1.7,0.8,1.7,1.7c0,0.9-0.8,1.7-1.7,1.7C45.4,38,44.7,37.2,44.7,36.3z"/>
	<path class="st0" d="M26.2,33C26.2,33,26.2,33.1,26.2,33C26.2,33.1,26.2,33,26.2,33c-1.9,0-3.3,1.4-3.3,3.2c0,1.8,1.4,3.2,3.2,3.2
		c0,0,0,0,0,0c0,0,0,0,0,0c1.8,0,3.2-1.4,3.2-3.2C29.5,34.5,28,33,26.2,33z M24.5,36.3c0-0.9,0.8-1.7,1.7-1.7c0.9,0,1.7,0.8,1.7,1.7
		c0,0.9-0.8,1.7-1.7,1.7C25.3,38,24.5,37.2,24.5,36.3z"/>
	<path class="st0" d="M31.2,34.3h-0.1v4.1h0.1h10.1h0.1v-4.1h-0.1H31.2z M32.7,36.9v-1.1h7.1v1.1H32.7z"/>
</g>
</svg>
